<svg width="408" height="375" viewBox="0 0 408 375" fill="none" xmlns="http://www.w3.org/2000/svg">
<g filter="url(#filter0_d_11_284)">
<path fill-rule="evenodd" clip-rule="evenodd" d="M225.418 0C329.18 0 351.027 143.8 351.451 144.983C351.888 146.203 352.301 147.457 352.699 148.675C353.508 151.149 354.549 153.53 355.359 155.987C355.854 157.486 356.764 158.727 357.374 160.143C358.557 162.847 360.007 165.428 361.702 167.846C362.402 168.804 362.952 169.862 363.333 170.984C363.601 171.844 364.488 172.073 364.871 172.831C365.49 174.059 366.316 175.18 367.032 176.359C367.194 176.773 367.568 177.068 368.01 177.129L367.87 178.299C368.129 178.721 368.218 178.151 368.489 178.251C368.828 178.708 369.311 179.114 369.36 179.809C369.405 180.462 370.168 180.524 370.429 181.094C371.001 182.331 372.593 182.962 372.57 184.585C373.713 185.304 374.276 186.537 375.14 187.504C375.583 187.95 375.853 188.536 375.905 189.16L375.912 189.303C375.906 189.923 377.102 189.784 376.78 190.629C378.611 192.003 379.086 194.248 380.053 196.108C381.604 199.091 383.39 201.975 384.444 205.242C384.971 206.877 385.993 208.423 386.561 210.078C387.84 213.799 389.375 217.438 390.206 221.313C390.549 222.913 391.249 224.438 391.577 226.043L391.955 227.898C392.518 230.682 393.052 233.472 393.407 236.293C393.588 236.93 393.588 237.604 393.406 238.24C393.101 238.965 393.911 239.429 393.977 240.155C394.058 241.017 393.714 241.834 393.962 242.748C394.098 243.253 393.962 244.062 394.119 244.647C394.629 246.549 393.983 248.511 394.537 250.4C394.625 251.13 394.548 251.871 394.313 252.568C393.929 254.894 394.631 257.268 393.931 259.539C393.603 260.659 393.54 261.839 393.747 262.985L393.833 263.427C393.895 263.754 393.936 264.073 393.775 264.293C393.137 265.166 393.302 266.194 393.175 267.148L393.15 267.306C392.967 268.374 393.156 269.494 392.834 270.582C392.393 271.647 392.146 272.782 392.103 273.934C392.266 275.887 391.609 277.64 391.206 279.453C391.005 280.358 391.171 281.435 390.174 282.109C389.667 282.452 390.864 283.117 390.138 283.619L390.053 283.672C389.52 283.973 389.543 284.457 389.694 285.039C389.831 285.569 388.903 285.936 389.169 286.48C389.434 287.023 389.554 287.814 389.244 287.914C388.469 288.169 389.257 289.011 388.606 289.171C388.542 289.206 388.498 289.268 388.487 289.34C388.265 291.38 386.951 293.054 386.626 295.093C386.38 296.31 385.906 297.471 385.229 298.512C384.668 299.518 384.191 300.567 383.803 301.652C383.075 303.475 381.828 304.997 381.126 306.811C380.935 307.302 379.663 307.138 380.31 308.146C379.568 308.408 379.793 309.177 379.495 309.657C379.166 310.019 378.783 310.329 378.36 310.576C378.086 311.655 377.561 312.656 376.827 313.495C375.546 315.37 374.147 317.161 372.638 318.859L371.392 320.254C369.727 322.114 368.008 323.934 365.814 325.216C365.25 325.546 365.507 326.171 365.042 326.51C362.352 328.496 359.874 330.749 356.813 332.254C355.532 332.885 354.433 334.005 353.124 334.661C350.642 335.907 348.338 337.458 345.683 338.427L345.211 338.593C343.52 339.155 341.856 340.008 340.14 340.627C336.615 342.011 332.935 342.968 329.181 343.474L326.865 343.731C324.806 343.958 322.744 344.168 320.665 344.225C319.681 344.252 318.737 343.94 317.836 344.052C316.958 344.163 316.067 344.091 315.219 343.842C314.549 343.654 313.982 344.23 313.26 343.921C312.706 343.574 312.02 343.522 311.422 343.775L311.304 343.83C310.962 344.028 310.289 343.662 309.767 343.544C309.007 343.438 308.259 343.253 307.538 342.993C306.978 342.734 306.265 343.565 305.876 342.682C305.168 343.231 257.096 331.807 212.937 355.005C209.34 357.387 205.132 358.434 201.29 360.284C199.503 361.146 197.495 361.54 195.573 362.129L195.162 362.258C191.768 363.355 188.287 364.104 184.811 364.886C181.617 365.577 178.382 366.058 175.125 366.325C172.783 366.537 170.431 366.635 168.095 366.89C167.147 366.993 166.219 366.326 165.292 366.899C163.209 366.332 161.023 367.02 158.946 366.38C157.565 366.788 156.267 366.282 154.998 365.908C154.028 365.62 153.115 366.217 152.136 365.794C151.245 365.329 150.247 365.107 149.243 365.151C147.575 365.407 146.123 364.795 144.605 364.472C141.076 363.72 137.559 362.908 134.055 362.034C132.907 361.748 131.618 361.858 130.635 360.981C129.773 360.21 128.411 360.693 127.564 359.784C127.255 359.453 126.86 360.094 126.395 359.844C125.486 359.356 124.318 359.678 123.469 358.798C122.84 358.146 121.653 358.587 120.957 357.8L120.865 357.685C120.454 357.114 119.37 358.46 119.049 357.189C117.753 357.089 116.679 356.383 115.525 355.898C114.569 355.499 113.441 355.725 112.578 354.892C111.843 354.183 110.454 354.705 109.817 353.642C108.259 353.628 107.111 352.463 105.626 352.156C104.499 351.86 103.417 351.415 102.408 350.832C100.809 350.01 99.186 349.235 97.5504 348.501C96.9639 348.228 96.3928 347.923 95.8395 347.587C95.5294 347.406 95.4543 347.004 95.011 346.906C92.2066 346.285 89.8484 344.651 87.4529 343.221C86.0865 342.515 84.7798 341.701 83.5442 340.788L83.1347 340.479C82.7731 340.169 82.0221 340.015 81.7044 339.583C80.8179 338.379 79.4923 337.79 78.2898 337.067L78.091 336.945C77.4134 336.546 76.7979 336.051 76.263 335.475C76.1618 335.365 76.121 335.127 76.0133 335.101C74.0178 334.608 72.8265 332.96 71.3009 331.807C69.9884 330.817 68.8409 329.61 67.5485 328.601L67.0561 328.232C64.0321 326.069 30.9386 289.654 27.1887 283.37L26.1156 281.572C25.044 279.77 23.9847 277.955 23.0094 276.104L22.1789 274.529C21.3496 272.949 20.5334 271.359 19.8118 269.741L18.8464 267.581C16.9201 263.259 15.0353 258.916 13.4288 254.454C11.9962 250.473 10.8103 246.426 9.61299 242.377C8.84611 239.777 8.19811 237.164 7.65066 234.515C6.77607 230.282 5.99611 226.03 5.31095 221.762C4.67189 217.744 4.90825 213.666 4.05485 209.692C4.61396 207.253 3.58598 204.776 4.22427 202.339C3.75079 201.135 4.16717 199.887 4.21167 198.7C4.25729 197.476 3.98259 196.193 4.47164 194.952C4.69568 194.388 4.17776 193.71 4.45838 193.022C4.7664 192.449 4.80197 191.769 4.55531 191.167C5.38682 190.785 4.39571 190.196 4.74101 189.652C5.1133 189.061 5.27775 188.363 5.2084 187.668C4.96624 186.114 5.8619 184.678 5.70466 183.273C5.54068 181.837 6.2501 180.619 6.24791 179.331L6.23874 179.089C6.1163 177.399 7.32453 176.126 7.36483 174.527C7.36862 174.388 7.69936 174.259 7.88062 174.12C7.82251 173.76 7.42472 173.841 7.14256 173.562C7.59302 173.17 7.98714 172.719 8.31374 172.221C8.56093 171.536 8.73651 170.829 8.83758 170.109L7.69226 168.631C8.11491 167.786 7.96755 167.018 8.53187 166.355C8.77746 166.065 8.64052 165.18 8.67082 164.569C8.71082 163.766 9.74223 163.288 9.49339 162.655C9.30148 161.925 9.36367 161.153 9.66974 160.464C11.1453 153.958 12.6484 147.459 14.1789 140.966C14.3399 140.271 14.1998 139.395 15.0563 138.988C14.1204 138.021 15.59 137.684 15.6129 136.918C15.7322 136.202 16.0081 135.522 16.4209 134.924C17.0055 133.807 17.0592 132.419 17.3921 131.16C17.4798 130.269 17.8171 129.422 18.3654 128.713C18.9355 128.123 18.8533 127.095 19.2826 126.266C19.8891 125.264 20.3591 124.187 20.6802 123.061C20.777 122.252 21.0994 121.486 21.6108 120.851C22.0649 120.35 21.692 119.312 22.5745 118.934C22.8221 117.479 23.6908 116.311 24.3339 115.036L24.4516 114.796C26.0313 111.516 27.8069 108.333 29.7687 105.265C31.3985 102.683 32.9844 100.074 34.6392 97.5076C35.1775 96.6791 35.7499 95.8542 36.3419 95.0677C38.3983 92.1757 40.6133 89.3997 42.9767 86.7521C45.1385 84.4613 47.1991 82.0676 49.4685 79.865C50.6752 78.6933 51.6623 77.2546 52.834 76.0101C55.5946 73.072 58.4292 70.2137 61.4106 67.501C63.9286 65.0137 66.6821 62.7756 69.6327 60.8186C70.4352 60.3304 71.0944 59.6156 71.869 59.0753C72.8088 58.5575 73.7106 57.974 74.5681 57.3283C75.5653 56.3904 76.7891 55.7939 77.7963 54.9251C78.578 54.2511 79.829 54.6358 80.3888 53.4226C80.7966 52.5403 82.3234 52.864 82.837 51.8331C84.2466 51.7858 84.9047 50.4211 86.1847 49.9726L86.3551 49.9199C87.7038 49.5518 88.8548 48.4635 90.0916 47.6919C91.2852 46.8468 92.5333 46.0822 93.8293 45.4041C96.2615 44.3087 98.3605 42.6399 100.738 41.5084C103.005 40.4314 105.045 38.8543 107.517 38.2542C108.101 38.1128 107.992 37.5973 108.394 37.3778C108.812 37.1476 109.27 37.3003 109.648 37.0351C111.212 36.0149 121.656 0 225.418 0Z" fill="#FFC239"/>
<path fill-rule="evenodd" clip-rule="evenodd" d="M108.372 77.1957C104.901 79.1539 99.819 76.656 99.2491 72.7118C101.463 72.5935 103.829 72.4207 105.579 71.0602C107.329 69.6991 107.942 66.6858 106.188 65.33C91.9058 63.576 78.0121 58.724 65.7439 51.2043C74.1211 48.6804 81.329 43.3562 89.1978 39.5303C97.0661 35.7045 106.583 33.4421 114.431 37.3106C122.136 41.1092 131.007 36.2637 139.048 33.2391C153.03 27.98 169.063 28.4209 182.735 34.4405C192.71 38.8326 209.613 31.7041 220.388 30.069C237.989 27.3983 255.172 39.7345 272.846 37.5982C270.95 38.8521 269.054 40.1055 267.158 41.3595C269.026 41.1891 270.903 41.1198 272.778 41.153C258.11 48.172 243.442 55.1905 228.774 62.2096C232.49 63.7127 236.206 65.2158 239.922 66.7189C239.048 69.5192 235.917 71.4105 233.031 70.8803C235.353 72.7278 237.675 74.5753 239.996 76.4229C237.518 78.1828 234.382 78.9917 231.361 78.6491C234.578 80.7257 237.233 83.6638 238.974 87.0736C246.636 84.5207 255.029 84.2065 262.861 86.1789C255.785 87.1068 248.709 88.0347 241.633 88.962C242.702 91.8712 243.77 94.7809 244.839 97.6901C254.082 95.5745 263.906 96.0556 272.899 99.0636C263.981 99.2909 255.064 99.5175 246.146 99.7448C245.938 111.576 240.048 123.641 229.706 129.39C219.364 135.139 198.698 140.252 191.853 123.512C186.612 126.951 186.983 135.219 190.719 140.252C194.456 145.285 200.392 148.07 205.761 151.306C223.594 162.054 237.045 179.852 242.516 199.943C247.987 220.033 245.419 242.194 235.498 260.5C248.874 262.58 261.303 270.192 269.235 281.162C286.314 273.215 295.773 255.081 308.856 241.528C323.738 226.11 344.283 216.282 365.626 214.371C378.254 213.24 392.656 215.675 400.021 225.994C409.596 239.407 400.768 260.262 385.486 266.428C373.371 271.316 359.707 268.857 346.676 269.78C320.473 271.637 297.468 287.089 275.861 302.029C274.98 306.867 276.749 312.104 280.382 315.416C288.111 307.427 297.861 301.409 308.466 298.079C312.386 296.849 318.262 297.17 318.697 301.255C318.862 302.802 318.048 304.268 317.225 305.588C310.155 316.923 300.185 326.432 288.529 332.96C282.377 336.406 275.502 339.076 268.461 338.682C261.42 338.287 254.251 334.224 251.859 327.59C250.751 324.516 250.631 320.957 248.532 318.453C244.982 314.215 238.162 315.484 233.185 317.891C228.208 320.298 222.903 323.571 217.563 322.143C204.213 318.572 190.318 317.041 176.51 317.618C158.926 318.355 141.009 322.448 123.972 318.032C118.281 316.557 111.913 314.231 106.871 317.255C96.9347 323.215 103.637 342.296 93.4432 347.805C89.8322 349.756 85.4075 349.036 81.4242 348.048C63.8213 343.679 47.3101 334.978 33.754 322.929C32.4476 321.768 31.1016 320.464 30.7354 318.754C29.6369 313.628 37.2042 311.495 42.3605 312.444C51.1194 314.056 59.4965 317.707 66.6405 323.026C69.1443 324.891 72.9547 322.715 74.0152 319.779C75.0762 316.843 74.3466 313.61 73.9323 310.515C71.3173 290.97 83.5789 270.421 102.022 263.441C90.856 247.146 86.61 226.268 90.5246 206.907C94.4392 187.545 106.462 169.956 123.082 159.279C129.721 155.014 137.349 151.525 141.58 144.864C145.811 138.204 143.954 127.029 136.214 125.493C128.921 133.391 117.059 136.733 106.716 133.8C96.3719 130.869 88.0273 121.8 85.9632 111.25C79.098 113.568 72.2334 115.887 65.3682 118.205C71.4617 113.509 78.6772 110.281 86.2395 108.866C86.965 105.722 87.6906 102.578 88.4167 99.4329C75.3171 98.5878 62.0329 100.744 49.8737 105.688C57.3561 100.055 66.8766 97.1936 76.2243 97.7659C85.7324 98.3482 95.3979 93.6962 100.874 85.9013C97.4478 84.6971 94.3688 82.5229 92.0875 79.6966C95.5819 77.7999 99.8137 77.3087 103.649 78.3538M175.572 283.433C174.948 284.04 174.277 284.761 174.321 285.631C174.365 286.499 175.669 287.148 176.119 286.403C178.574 282.337 182.843 279.413 187.521 278.594C192.201 277.775 197.209 279.075 200.899 282.066C202.187 283.109 203.336 284.357 204.807 285.119C205.336 285.394 206.243 285.402 206.265 284.805C206.272 284.61 206.16 284.432 206.05 284.269C203.4 280.364 199.438 277.365 194.959 275.877C191.033 274.573 186.483 274.49 182.972 276.678C181.697 277.472 180.609 278.529 179.533 279.577C178.212 280.863 176.892 282.148 175.572 283.433ZM156.532 276.327C151.449 275.655 145.976 277.361 142.591 281.212C141.994 281.891 141.452 282.655 141.246 283.535C141.042 284.415 141.235 285.434 141.916 286.026C144.535 281.959 149.188 279.276 154.02 279.048C158.852 278.82 163.737 281.053 166.727 284.856C167.195 285.451 167.641 286.101 168.304 286.464C168.968 286.828 169.934 286.781 170.337 286.141C170.82 285.377 170.237 284.4 169.642 283.72C166.264 279.863 161.615 276.999 156.532 276.327ZM192.387 271.123C192.308 271.982 193.444 272.517 194.26 272.236C195.076 271.954 195.617 271.202 196.163 270.534C200.707 264.977 209.36 263.302 215.65 266.764C216.475 266.067 216.522 264.731 215.97 263.803C215.418 262.874 214.41 262.305 213.382 261.976C211.154 261.264 208.734 261.507 206.442 261.971C201.016 263.069 195.536 265.64 192.684 270.385C192.546 270.614 192.412 270.856 192.387 271.123ZM171.057 289.154C168.827 289.309 166.645 289.899 164.557 290.698C161.672 291.802 158.832 293.411 157.143 295.997C159.619 296.699 161.993 294.852 164.256 293.624C169.331 290.87 175.914 291.155 180.733 294.337C182.244 295.335 184.186 296.625 185.66 295.571C182.212 291.248 176.574 288.771 171.057 289.154ZM180.218 287.76C181.909 286.879 183.261 285.447 184.939 284.54C187.249 283.29 190.128 283.146 192.552 284.158C193.868 284.708 195.033 285.568 196.33 286.162C197.627 286.756 199.172 287.064 200.464 286.46C200.607 286.392 200.755 286.304 200.816 286.158C200.914 285.92 200.739 285.664 200.57 285.47C197.679 282.17 193.149 280.382 188.783 280.818C184.416 281.253 180.329 283.902 178.147 287.708C178.603 288.308 179.55 288.108 180.218 287.76ZM146.346 287.917C147.252 287.402 147.961 286.606 148.789 285.973C150.446 284.708 152.604 284.125 154.675 284.366C156.983 284.633 159.064 285.855 160.972 287.18C161.53 287.567 162.1 287.975 162.762 288.128C163.424 288.282 164.212 288.115 164.586 287.549C164.956 286.988 164.808 286.205 164.411 285.663C164.015 285.12 163.42 284.763 162.84 284.423C160.481 283.039 157.989 281.656 155.258 281.515C151.844 281.339 148.671 283.118 145.719 284.841C144.521 285.54 143.147 286.598 143.4 287.961C144.219 288.605 145.44 288.433 146.346 287.917ZM161.719 274.685C162.336 275.482 163.543 274.627 164.223 273.884C166.319 271.594 169.34 270.176 172.44 270.027C175.541 269.879 178.683 271 180.989 273.079C181.571 273.603 182.184 274.222 182.967 274.244C183.749 274.265 184.454 273.173 183.834 272.696C180.51 270.142 176.643 268.055 172.46 267.78C168.278 267.504 163.771 269.38 161.834 273.097C161.575 273.596 161.376 274.241 161.719 274.685ZM198.698 273.986C199.25 273.752 199.654 273.277 200.077 272.852C203.295 269.615 208.746 268.892 212.697 271.177C213.685 271.749 215.172 272.38 215.746 271.392C216.224 270.57 215.371 269.612 214.557 269.119C209.243 265.897 201.667 267.124 197.643 271.859C197.233 272.342 196.84 273.003 197.121 273.57C197.388 274.107 198.146 274.219 198.698 273.986ZM201.635 274.29C201.407 274.481 201.179 274.695 201.083 274.976C200.815 275.763 201.771 276.499 202.599 276.434C203.428 276.368 204.133 275.835 204.885 275.48C206.718 274.616 208.921 274.822 210.782 275.625C211.519 275.943 212.232 276.354 213.025 276.473C213.818 276.593 214.743 276.33 215.104 275.614C211.951 271.705 205.49 271.07 201.635 274.29ZM151.773 272.79C152.244 273.011 152.886 272.968 153.188 272.546C153.6 271.971 153.159 271.188 152.722 270.633C151.242 268.751 149.65 266.898 147.616 265.636C145.581 264.373 143.019 263.766 140.753 264.54C140.523 265.376 141.564 265.945 142.384 266.231C145.54 267.331 148.404 269.256 150.615 271.763C150.959 272.153 151.302 272.569 151.773 272.79ZM179.663 274.89C175.938 272.514 170.854 272.473 167.091 274.787C166.437 275.189 165.765 275.754 165.715 276.52C165.664 277.286 166.704 277.997 167.22 277.429C169.298 275.137 173.097 274.661 175.676 276.37C176.943 277.209 178.761 277.094 179.913 276.104C180.457 276.047 180.123 275.184 179.663 274.89ZM206.755 287.742C201.464 287.385 196.539 290.499 192.698 294.156C192.978 294.803 193.932 294.631 194.578 294.352C198.952 292.459 203.327 290.565 207.701 288.672C208.03 288.237 207.3 287.779 206.755 287.742ZM156.389 290.099C157.04 290.468 157.678 290.97 158.426 290.97C159.174 290.971 159.916 290.07 159.441 289.492C157.947 287.67 155.598 286.58 153.242 286.616C150.886 286.653 148.572 287.813 147.134 289.68C147.311 290.358 148.142 290.671 148.835 290.57C149.529 290.468 150.14 290.077 150.784 289.798C152.563 289.027 154.702 289.142 156.389 290.099ZM182.632 289.601C182.572 290.123 183.162 290.521 183.686 290.493C184.21 290.464 184.67 290.158 185.129 289.905C187.057 288.843 189.431 288.625 191.52 289.319C192.858 289.763 194.528 290.49 195.494 289.462C195.579 288.875 194.99 288.432 194.466 288.153C192.59 287.156 190.525 286.402 188.4 286.422C186.275 286.442 184.082 287.333 182.868 289.078C182.758 289.237 182.654 289.409 182.632 289.601ZM178.682 266.736C180.869 267.519 182.907 268.719 184.652 270.253C185.372 270.885 186.06 271.586 186.933 271.981C187.806 272.375 188.939 272.385 189.623 271.714C188.111 270.554 186.869 269.045 186.022 267.338C185.566 266.419 184.35 266.251 183.325 266.201C181.826 266.127 180.328 266.054 178.83 265.981C178.672 266.194 178.616 266.479 178.682 266.736ZM159.141 271.997C159.915 271.274 160.486 270.363 161.2 269.583C162.308 268.372 163.768 267.487 165.354 267.064C166.038 266.881 166.938 266.531 166.834 265.831C164.896 265.494 162.684 265.223 161.155 266.461C159.015 268.195 157.317 270.473 156.267 273.02C157.301 273.249 158.368 272.719 159.141 271.997ZM141.911 271.119C143.3 272.024 144.69 272.929 146.079 273.834C146.667 274.218 147.417 274.61 148.028 274.263C148.594 273.941 148.68 273.111 148.385 272.53C148.09 271.95 147.527 271.561 146.987 271.197C145.856 270.436 144.725 269.675 143.595 268.913C142.647 268.275 141.104 267.767 140.589 268.786C140.145 269.664 141.087 270.582 141.911 271.119ZM171.159 281.999C171.69 282.527 172.435 283.097 173.111 282.774C173.418 282.626 173.617 282.323 173.799 282.035C174.401 281.083 175.004 280.131 175.605 279.18C174.029 277.426 170.934 277.379 169.305 279.084C169.18 279.215 169.058 279.365 169.036 279.545C169 279.829 169.22 280.076 169.424 280.278C170.002 280.852 170.581 281.425 171.159 281.999ZM146.851 295.609C147.981 296.006 149.314 296.123 150.31 295.459C148.81 293.734 147.052 292.234 145.113 291.023C144.563 290.68 143.942 290.349 143.3 290.44C142.658 290.532 142.09 291.261 142.401 291.831C143.355 293.577 144.973 294.951 146.851 295.609ZM208.829 281.744C209.363 281.099 209.897 280.454 210.43 279.809C210.614 279.586 210.809 279.335 210.797 279.047C210.782 278.681 210.448 278.419 210.129 278.239C209.019 277.615 207.709 277.355 206.445 277.507C205.962 277.565 205.459 277.697 205.119 278.045C204.779 278.393 204.681 279.012 205.023 279.359C205.798 280.144 206.573 280.929 207.348 281.714C207.602 281.97 207.922 282.249 208.275 282.172C208.508 282.122 208.677 281.927 208.829 281.744ZM153.122 267.807C153.601 268.323 154.203 268.851 154.904 268.793C156.407 268.669 156.892 266.074 158.394 266.216C158.797 265.551 157.697 265.019 156.92 265.007C154.908 264.975 152.895 264.943 150.884 264.911C151.54 265.942 152.291 266.912 153.122 267.807ZM165.548 296.086C169.733 296.067 173.918 296.049 178.103 296.031C177.736 295.204 176.755 294.868 175.868 294.684C172.964 294.082 169.919 294.174 167.056 294.95C166.415 295.124 165.684 295.436 165.548 296.086ZM191.389 291.682C190.004 291.744 188.619 291.807 187.234 291.869C186.788 291.89 186.214 292.019 186.159 292.463C186.134 292.661 186.234 292.852 186.33 293.027C186.697 293.692 187.086 294.384 187.719 294.803C188.352 295.221 189.305 295.262 189.797 294.685C190.175 294.242 190.205 293.552 190.655 293.183C190.945 292.945 191.347 292.898 191.668 292.704C191.989 292.509 192.194 292.006 191.896 291.777C191.756 291.67 191.565 291.674 191.389 291.682ZM155.534 293.998C155.904 293.421 155.554 292.603 154.978 292.232C154.402 291.861 153.681 291.816 152.996 291.782C152.24 291.745 151.244 291.884 151.108 292.629C151.043 292.984 151.224 293.333 151.399 293.648C151.912 294.575 152.667 295.637 153.721 295.532C154.538 295.451 155.091 294.69 155.534 293.998ZM210.235 285.694C210.856 285.745 211.413 285.324 211.849 284.878C213.179 283.519 214.025 281.695 214.204 279.801C213.764 279.52 213.225 279.956 212.888 280.355C211.756 281.694 210.624 283.033 209.491 284.372C209.089 284.848 209.614 285.642 210.235 285.694ZM140.967 276.208C141.598 276.999 142.816 277.246 143.706 276.765C144.162 276.519 144.546 276.03 144.456 275.52C144.375 275.066 143.962 274.758 143.581 274.499C143.03 274.123 142.48 273.748 141.929 273.373C141.761 273.258 141.567 273.138 141.368 273.179C141.23 273.207 141.12 273.308 141.028 273.414C140.363 274.176 140.336 275.418 140.967 276.208ZM189.87 267.868C190.531 268.423 191.511 267.849 192.168 267.288C192.879 266.68 193.591 266.072 194.304 265.463C193.901 265.078 193.256 265.165 192.711 265.278C191.125 265.605 189.54 265.933 187.955 266.261C188.593 266.797 189.232 267.332 189.87 267.868ZM214.766 260.091C215.165 260.588 216.005 260.481 216.463 260.037C216.921 259.593 217.09 258.937 217.221 258.313C217.252 258.163 217.282 258.001 217.219 257.861C217.059 257.506 216.532 257.613 216.179 257.777C215.228 258.221 214.109 259.273 214.766 260.091Z" fill="white"/>
<path fill-rule="evenodd" clip-rule="evenodd" d="M90.5256 206.911C94.4402 187.549 107.825 171.341 124.444 160.664C116.042 172.183 90.2551 191.073 98.5435 212.117C111.792 245.758 163.331 251.048 161.538 251.414C131.055 257.629 87.6111 221.327 90.5256 206.911Z" fill="#E7EAEE"/>
<path fill-rule="evenodd" clip-rule="evenodd" d="M188.03 38.8871C185.909 39.1445 184.041 40.8429 183.583 42.9295C200.749 33.6995 221.483 31.3271 240.29 36.4395C240.306 45.9245 233.653 55.0473 224.616 57.9298L205.026 64.1796C210.194 64.753 215.504 63.9949 220.305 61.9989C222.011 64.6867 224.821 66.6503 227.932 67.3267L221.91 68.6475C222.798 71.3525 224.611 73.7451 226.975 75.331C224.969 74.644 222.736 74.6369 220.725 75.3115L222.074 80.2079C213.195 78.9758 203.707 80.1848 196.228 85.1273C188.749 90.0698 183.727 99.1553 185.075 108.018C186.652 98.3819 193.255 89.713 202.125 85.6327C210.995 81.5518 221.875 82.1791 230.218 87.2512L224.558 91.4427C226.732 92.3073 229.307 92.0866 231.302 90.8646C235.658 92.792 234.452 100.761 229.721 101.314L235.979 101.749C237.064 112.39 230.49 123.365 220.595 127.43C210.701 131.495 198.31 128.312 191.601 119.981C183.272 124.234 183.856 137.124 189.792 144.351C193.935 149.396 199.642 152.673 205.358 155.956C207.829 157.375 210.304 158.796 212.654 160.362C225.137 168.677 234.443 181.644 238.324 196.133C231.546 200.672 225.515 206.327 220.551 212.8C227.896 212.458 235.089 209.461 240.506 204.489L241.662 215.676C235.716 217.508 230.373 221.245 226.614 226.204C231.914 226.744 237.379 225.506 241.928 222.735C240.299 235.608 237.357 248.315 233.165 260.595L219.498 260.483C222.74 251.522 226.025 241.88 223.636 232.655C221.247 223.429 210.532 215.813 202.098 220.251C211.797 212.433 219.142 201.73 222.949 189.868L198.523 221.397L179.779 221.556C179.19 212.724 178.623 203.673 181.134 195.185C183.644 186.698 189.913 178.752 198.55 176.817C199.487 176.607 200.484 176.436 201.495 176.263C205.716 175.54 210.168 174.777 211.407 170.963C197.406 170.148 183.371 179.111 178.222 192.156C174.552 201.451 175.198 211.812 175.901 221.781C162.958 219.914 149.705 220.214 136.859 222.665C134.629 215.064 132.316 207.292 127.638 200.898C122.961 194.505 115.367 189.656 107.484 190.446C120.179 192.332 126.467 206.438 131.254 218.346C136.04 230.254 144.73 243.855 157.51 242.677C161.15 242.342 162.308 248.32 159.519 250.681C156.729 253.043 152.585 252.593 149.014 251.812C130.622 247.787 113.45 238.343 100.201 224.966C97.6212 222.361 95.1268 219.511 93.9344 216.045C92.4638 211.767 93.1491 207.044 94.4137 202.701C100.874 180.516 120.756 165.315 139.651 152.015C149.816 144.859 149.452 127.126 139.001 120.395C131.265 127.424 120.95 132.34 110.559 131.194C100.169 130.047 90.3358 121.539 90.0009 111.091C93.2639 110.804 96.4625 109.802 99.3065 108.177C96.5151 107.185 93.3687 107.227 90.6045 108.294C89.8529 105.478 90.4015 102.343 92.065 99.9501L97.9892 99.3169C96.798 97.9706 95.1369 97.048 93.3645 96.7492C97.6401 89.6254 107.562 87.6755 115.515 90.0828C123.466 92.4902 129.907 98.2251 136.068 103.799C129.643 89.713 112.223 85.1729 97.0122 82.2862L103.649 78.3538C99.8137 77.3087 95.5819 77.7999 92.0875 79.6966C94.3688 82.5229 97.4478 84.6971 100.874 85.9013C95.3979 93.6962 85.7324 98.3482 76.2243 97.7659C66.8766 97.1936 57.3561 100.055 49.8737 105.688C62.0329 100.744 75.3171 98.5878 88.4167 99.4329L86.2395 108.866C78.6772 110.281 71.4617 113.509 65.3682 118.205L85.9632 111.25C88.0273 121.8 96.3719 130.869 106.716 133.8C117.059 136.733 128.921 133.391 136.214 125.493C143.954 127.029 145.811 138.204 141.58 144.864C138.23 150.139 132.75 153.424 127.318 156.681C125.889 157.537 124.464 158.391 123.082 159.279C106.462 169.956 94.4392 187.545 90.5246 206.907C86.61 226.268 90.856 247.146 102.022 263.441C83.5789 270.421 71.3173 290.97 73.9323 310.515C73.9921 310.963 74.0584 311.414 74.1253 311.866C74.52 314.539 74.923 317.268 74.0152 319.779C72.9547 322.715 69.1443 324.891 66.6405 323.026C59.4965 317.707 51.1194 314.056 42.3605 312.444C37.2042 311.495 29.6369 313.628 30.7354 318.754C31.1016 320.464 32.4476 321.768 33.754 322.929C47.3101 334.978 63.8213 343.679 81.4242 348.048C85.4075 349.036 89.8322 349.756 93.4432 347.805C98.5834 345.027 99.4273 338.798 100.275 332.539C101.109 326.389 101.945 320.21 106.871 317.255C111.318 314.587 116.799 316.083 121.935 317.485L121.938 317.486C122.624 317.673 123.303 317.859 123.972 318.032C136.188 321.198 148.855 319.99 161.528 318.781C166.531 318.304 171.533 317.827 176.51 317.618C190.318 317.041 204.213 318.572 217.563 322.143C222.213 323.386 226.836 321.066 231.238 318.856C231.892 318.528 232.541 318.203 233.185 317.891C238.162 315.484 244.982 314.215 248.532 318.453C249.937 320.128 250.455 322.275 250.976 324.433V324.434H250.977V324.435V324.436L250.977 324.437V324.438V324.439H250.978V324.44V324.441C251.235 325.506 251.493 326.574 251.859 327.59C254.251 334.224 261.42 338.287 268.461 338.682C275.502 339.076 282.377 336.406 288.529 332.96C300.185 326.432 310.155 316.923 317.225 305.588C318.048 304.268 318.862 302.802 318.697 301.255C318.262 297.17 312.386 296.849 308.466 298.079C297.861 301.409 288.111 307.427 280.382 315.416C276.749 312.104 274.98 306.867 275.861 302.029C297.468 287.089 320.473 271.637 346.676 269.78C350.785 269.489 354.956 269.535 359.122 269.579C368.169 269.677 377.191 269.775 385.486 266.428C400.768 260.262 409.596 239.407 400.021 225.994C392.656 215.675 378.254 213.24 365.626 214.371C344.283 216.282 323.738 226.11 308.856 241.528C304.721 245.812 300.948 250.553 297.182 255.285C289.033 265.527 280.916 275.727 269.235 281.162C261.303 270.192 248.874 262.58 235.498 260.5C245.419 242.194 247.987 220.033 242.516 199.943C237.045 179.852 223.594 162.054 205.761 151.306C204.789 150.72 203.799 150.15 202.807 149.578L202.806 149.577C198.315 146.989 193.78 144.374 190.719 140.252C186.983 135.219 186.612 126.951 191.853 123.512C198.821 133.074 213.446 135.139 223.789 129.39C234.13 123.641 240.02 111.576 240.229 99.7448L266.981 99.0636C257.988 96.0556 248.164 95.5745 238.921 97.6901L235.715 88.962L256.943 86.1789C249.111 84.2065 240.718 84.5207 233.056 87.0736C231.315 83.6638 228.661 80.7257 225.444 78.6491C228.464 78.9917 231.601 78.1828 234.078 76.4229L227.114 70.8803C229.999 71.4105 233.13 69.5192 234.004 66.7189L222.856 62.2096L266.86 41.153C264.985 41.1198 263.108 41.1891 261.24 41.3595L266.928 37.5982C258.244 38.648 249.678 36.2034 241.123 33.7617C232.267 31.2348 223.423 28.7109 214.47 30.069C210.953 30.6028 207.413 31.7212 203.894 32.8344C196.631 35.1299 189.454 37.3993 182.735 34.4405C169.063 28.4209 153.03 27.98 139.048 33.2391C137.812 33.7043 136.555 34.2126 135.287 34.7257C128.307 37.5496 120.951 40.5251 114.431 37.3106C106.583 33.4421 97.0661 35.7045 89.1978 39.5303C86.4354 40.8731 83.7546 42.401 81.0763 43.9272C76.1243 46.7488 71.1806 49.5663 65.7439 51.2043C78.0121 58.724 91.9058 63.576 106.188 65.33C107.942 66.6858 107.329 69.6991 105.579 71.0602C103.829 72.4207 101.463 72.5935 99.2491 72.7118C99.819 76.656 104.901 79.1539 108.372 77.1957C106.913 77.4667 106.804 75.0973 107.41 73.7433L111.192 65.2927C114.129 66.3709 117.784 64.6406 118.811 61.6858C111.539 62.5611 103.993 63.4126 97.0258 61.1503C90.0594 58.8879 83.8345 52.576 84.1612 45.2581C99.6758 36.2696 120.503 37.4869 134.865 48.2212C133.756 44.9853 131.03 42.3484 127.759 41.3477C131.536 37.6289 136.55 35.1885 141.807 34.5103C138.684 36.981 137.252 41.3986 138.333 45.2315L152.355 32.3349C150.055 36.4584 148.767 41.1417 148.634 45.8617C153.834 42.4632 157.977 37.4709 160.359 31.7331L166.596 32.6089C162.778 35.8353 160.65 40.9624 161.063 45.9446C165.816 42.9898 169.5 38.3551 171.308 33.0587C177.165 34.0049 182.854 35.988 188.03 38.8871ZM360.332 267.19C357.196 267.086 354.057 266.982 350.938 267.071C327.716 267.73 306.127 279.04 286.968 292.177L286.77 292.314L286.554 292.462L286.175 292.722L286.161 292.732C282.525 295.233 278.853 297.758 274.703 299.233L269.827 285.022C269.565 284.259 269.404 283.211 270.113 282.828C277.569 278.796 284.377 273.57 290.198 267.409C294.077 263.303 297.517 258.793 300.953 254.287C305.819 247.907 310.677 241.536 316.761 236.344C326.475 228.054 338.705 223.309 350.976 219.77C360.057 217.151 369.574 215.096 378.915 216.535C388.256 217.973 397.454 223.549 400.879 232.357C403.6 239.354 402.268 247.607 398.077 253.834C393.885 260.062 387.079 264.299 379.786 266.078C373.444 267.623 366.893 267.407 360.332 267.19ZM93.1426 297.294C93.6338 298.462 93.9433 300.021 92.9633 300.823C91.7004 301.857 89.9097 300.524 88.8487 299.285L79.8063 288.718C77.6416 294.346 76.6486 300.421 76.9084 306.445C76.9605 307.652 77.0587 308.877 77.1575 310.106V310.108L77.1581 310.108V310.109V310.111V310.111C77.5363 314.816 77.9191 319.585 75.7396 323.665C74.7839 325.455 73.1577 327.098 71.1326 327.229C69.9852 327.303 68.8679 326.884 67.8086 326.436C64.9054 325.208 62.0447 323.699 59.1853 322.191C51.8236 318.308 44.4684 314.428 36.4077 315.354C35.3068 315.48 33.9361 316.023 33.9791 317.13C33.9983 317.626 34.3218 318.052 34.6363 318.436C46.2579 332.629 64.4314 339.512 82.0243 344.709C84.9015 345.559 87.9338 346.386 90.8637 345.741C93.7935 345.095 96.5134 342.454 96.1595 339.475C95.2233 331.592 97.6928 323.363 102.815 317.299C104.86 314.879 107.445 312.724 110.547 312.079C114.358 311.288 118.083 312.858 121.751 314.405C122.694 314.802 123.633 315.198 124.568 315.551C131.738 318.262 139.798 318.558 147.148 316.38C144.274 316.343 142.894 312.897 142.299 310.086C138.44 291.873 136.388 273.277 136.184 254.661C136.162 252.637 134.742 250.847 133.03 249.768C131.58 248.855 129.926 248.346 128.282 247.841C127.985 247.749 127.687 247.658 127.39 247.564C121.405 245.667 115.764 242.687 110.825 238.809C110.203 238.32 109.59 237.817 108.977 237.313C107.087 235.759 105.195 234.204 103.025 233.091C100.151 231.616 96.5944 231.015 93.7142 232.477C93.0716 234.008 94.2332 235.787 95.7198 236.526C96.8459 237.086 98.1076 237.238 99.3657 237.39C99.7693 237.438 100.172 237.487 100.57 237.548C102.463 237.843 104.306 238.459 105.995 239.364C107.768 240.314 109.449 242.822 107.868 244.067C107.219 244.578 106.311 244.542 105.488 244.481L96.2027 243.799C98.4662 249.957 101.352 255.886 104.802 261.467C105.111 261.968 105.525 262.525 106.114 262.53C115.21 262.612 125.368 263.886 131.132 270.923C132.225 272.256 133.121 274.184 132.184 275.631C126.901 269.251 118.635 265.452 110.352 265.594C102.069 265.737 93.9397 269.82 88.8794 276.379C93.3462 279.369 96.8968 283.708 98.9438 288.678C99.5616 290.178 99.448 292.633 97.8253 292.599L88.0788 280.666C87.6432 280.132 87.1195 279.554 86.4313 279.532C85.8797 279.516 85.3933 279.868 84.9554 280.205C84.0073 280.934 83.0232 281.706 82.5285 282.794C82.0338 283.883 82.2178 285.381 83.2487 285.986C87.6426 288.567 91.1684 292.596 93.1426 297.294ZM204.26 315.969C210.519 310.749 212.561 302.151 214.242 294.175L220.401 264.95C220.467 264.637 220.542 264.307 220.767 264.08C221.063 263.78 221.529 263.748 221.949 263.735C233.176 263.396 245.129 264.466 254.172 271.128C250.482 272.958 247.257 275.715 244.876 279.075C244.208 280.018 243.65 281.436 244.51 282.208C244.832 282.497 245.281 282.6 245.714 282.63C247.869 282.784 249.838 281.437 251.413 279.958C251.753 279.639 252.087 279.309 252.42 278.979C253.635 277.777 254.855 276.57 256.397 275.864C258.361 274.965 261.091 275.217 262.175 277.087C258.671 278.872 255.783 281.841 254.097 285.394C253.658 286.319 253.295 287.389 253.651 288.349C254.006 289.309 255.405 289.872 256.093 289.113L262.864 281.639C263.191 281.277 263.646 280.881 264.104 281.048C264.351 281.138 264.513 281.372 264.654 281.594C268.242 287.224 269.668 293.78 271.101 300.364C271.94 304.219 272.781 308.084 274.059 311.779C275.083 314.739 277.06 318.065 280.193 318.067C281.923 318.068 283.455 317.003 284.825 315.946C286.29 314.815 287.747 313.629 289.212 312.437C296.097 306.834 303.139 301.103 311.811 300.417C313.178 300.309 314.931 300.61 315.252 301.944C315.438 302.718 315.022 303.497 314.606 304.176C308.16 314.726 298.493 323.045 287.812 329.272C282.344 332.46 276.348 335.198 270.018 335.247C263.688 335.296 256.986 332.06 254.594 326.199C254.106 325.004 253.808 323.742 253.51 322.481L253.509 322.48C253.165 321.022 252.82 319.565 252.183 318.215C250.542 314.734 246.905 312.284 243.062 312.071C239.403 311.868 236.038 313.498 232.681 315.124C231.501 315.696 230.322 316.266 229.132 316.757C221.231 320.016 211.94 319.722 204.26 315.969ZM162.48 253.052C160.123 255.062 156.954 255.864 153.865 256.091C148.3 256.499 142.622 255.197 137.791 252.404L139.784 259.948C139.87 260.273 139.972 260.623 140.242 260.823C140.476 260.998 140.787 261.019 141.079 261.035L169.718 262.54C173.894 262.759 178.075 262.979 182.254 262.858C193.977 262.519 205.612 259.459 215.984 253.986C216.583 253.671 217.193 253.334 217.623 252.813C218.137 252.191 218.34 251.377 218.512 250.589C219.964 243.925 220.216 237.001 219.25 230.25C219.013 228.592 218.682 226.891 217.75 225.5C216.817 224.108 215.141 223.09 213.495 223.404C196.642 226.613 179.438 225.622 162.235 224.631H162.234H162.234H162.233H162.232H162.231H162.231C155.747 224.257 149.263 223.883 142.798 223.735C141.643 223.708 140.43 223.702 139.415 224.255C138.402 224.807 137.704 226.118 138.225 227.148C141.172 232.981 147.264 236.703 153.579 238.381C154.033 238.502 154.497 238.62 154.967 238.74C159.052 239.779 163.552 240.923 165.035 244.726C166.16 247.611 164.836 251.041 162.48 253.052ZM208.43 302.483C207.275 307.071 204.846 311.829 200.44 313.549C198.898 314.151 197.229 314.331 195.582 314.484C180.304 315.906 164.862 315.563 149.663 313.465C148.758 313.341 147.804 313.188 147.098 312.607C146.239 311.901 145.948 310.73 145.723 309.641C145.033 306.301 144.498 302.928 144.121 299.539C144.054 298.938 144.221 298.082 144.823 298.129C154.549 298.886 164.303 299.283 174.059 299.32C180.788 299.346 187.571 299.194 194.143 297.748C200.716 296.303 207.124 293.478 211.929 288.766C210.563 291.635 209.975 294.768 209.386 297.907L209.385 297.908V297.909L209.385 297.909V297.91V297.911H209.384V297.912C209.097 299.444 208.809 300.978 208.43 302.483ZM175.572 283.433C174.948 284.04 174.277 284.761 174.321 285.631C174.365 286.499 175.669 287.148 176.119 286.403C178.574 282.337 182.843 279.413 187.521 278.594C192.201 277.775 197.209 279.075 200.899 282.066C201.283 282.376 201.654 282.705 202.025 283.034C202.899 283.809 203.774 284.584 204.807 285.119C205.336 285.394 206.243 285.402 206.265 284.805C206.272 284.61 206.16 284.432 206.05 284.269C203.4 280.364 199.438 277.365 194.959 275.877C191.033 274.573 186.483 274.49 182.972 276.678C181.697 277.472 180.609 278.529 179.533 279.577L175.572 283.433ZM142.591 281.212C145.976 277.361 151.449 275.655 156.532 276.327C161.615 276.999 166.264 279.863 169.642 283.72C170.237 284.4 170.82 285.377 170.337 286.141C169.934 286.781 168.968 286.828 168.304 286.464C167.725 286.147 167.312 285.612 166.906 285.086L166.903 285.083C166.868 285.036 166.832 284.99 166.796 284.945C166.773 284.915 166.75 284.886 166.727 284.856C163.737 281.053 158.852 278.82 154.02 279.048C149.188 279.276 144.535 281.959 141.916 286.026C141.235 285.434 141.042 284.415 141.246 283.535C141.452 282.655 141.994 281.891 142.591 281.212ZM192.387 271.123C192.308 271.982 193.444 272.517 194.26 272.236C194.994 271.982 195.506 271.348 195.999 270.737C196.054 270.669 196.109 270.601 196.163 270.534C200.707 264.977 209.36 263.302 215.65 266.764C216.475 266.067 216.522 264.731 215.97 263.803C215.418 262.874 214.41 262.305 213.382 261.976C211.154 261.264 208.734 261.507 206.442 261.971C201.016 263.069 195.536 265.64 192.684 270.385C192.546 270.614 192.412 270.856 192.387 271.123ZM164.557 290.698C166.645 289.899 168.827 289.309 171.057 289.154C176.574 288.771 182.212 291.248 185.66 295.571C184.192 296.622 182.257 295.343 180.747 294.347L180.732 294.337C175.914 291.155 169.331 290.87 164.256 293.624C163.86 293.839 163.46 294.073 163.057 294.309C161.159 295.42 159.186 296.576 157.143 295.997C158.832 293.411 161.672 291.802 164.557 290.698ZM180.218 287.76C181.083 287.309 181.859 286.714 182.636 286.119C183.377 285.551 184.119 284.983 184.939 284.54C187.249 283.29 190.128 283.146 192.552 284.158C193.259 284.454 193.922 284.839 194.586 285.223L194.587 285.224C195.158 285.555 195.73 285.887 196.33 286.162C197.627 286.756 199.172 287.064 200.464 286.46C200.607 286.392 200.755 286.304 200.816 286.158C200.914 285.92 200.739 285.664 200.57 285.47C197.679 282.17 193.149 280.382 188.783 280.818C184.416 281.253 180.329 283.902 178.147 287.708C178.603 288.308 179.55 288.108 180.218 287.76ZM147.899 286.723C147.407 287.159 146.915 287.594 146.346 287.917C145.44 288.433 144.219 288.605 143.4 287.961C143.147 286.598 144.521 285.54 145.719 284.841C148.671 283.118 151.844 281.339 155.258 281.515C157.989 281.656 160.481 283.039 162.84 284.423C163.42 284.763 164.015 285.12 164.411 285.663C164.808 286.205 164.956 286.988 164.586 287.549C164.212 288.115 163.424 288.282 162.762 288.128C162.124 287.981 161.573 287.597 161.035 287.223L160.972 287.18C159.064 285.855 156.983 284.633 154.675 284.366C152.604 284.125 150.446 284.708 148.789 285.973C148.483 286.207 148.194 286.463 147.904 286.719L147.904 286.719L147.903 286.72L147.903 286.721H147.902L147.901 286.721L147.901 286.722L147.9 286.722H147.9L147.899 286.723ZM161.719 274.685C162.336 275.482 163.543 274.627 164.223 273.884C166.319 271.594 169.34 270.176 172.44 270.027C175.541 269.879 178.683 271 180.989 273.079C181.036 273.121 181.083 273.164 181.13 273.207C181.671 273.699 182.247 274.224 182.967 274.244C183.749 274.265 184.454 273.173 183.834 272.696C180.51 270.142 176.643 268.055 172.46 267.78C168.278 267.504 163.771 269.38 161.834 273.097C161.575 273.596 161.376 274.241 161.719 274.685ZM199.89 273.044C199.531 273.413 199.168 273.787 198.698 273.986C198.146 274.219 197.388 274.107 197.121 273.57C196.84 273.003 197.233 272.342 197.643 271.859C201.667 267.124 209.243 265.897 214.557 269.119C215.371 269.612 216.224 270.57 215.746 271.392C215.172 272.38 213.685 271.749 212.697 271.177C208.746 268.892 203.295 269.615 200.077 272.852C200.014 272.915 199.952 272.979 199.89 273.044ZM201.635 274.29C201.407 274.481 201.179 274.695 201.083 274.976C200.815 275.763 201.771 276.499 202.599 276.434C203.199 276.386 203.734 276.094 204.269 275.802C204.473 275.69 204.677 275.579 204.885 275.48C206.718 274.616 208.921 274.822 210.782 275.625C210.837 275.649 210.893 275.674 210.948 275.699C211.068 275.753 211.188 275.809 211.309 275.864C211.865 276.124 212.422 276.383 213.025 276.473C213.818 276.593 214.743 276.33 215.104 275.614C211.951 271.705 205.49 271.07 201.635 274.29ZM153.188 272.546C152.886 272.968 152.244 273.01 151.773 272.79C151.336 272.585 151.008 272.211 150.688 271.846L150.615 271.763C148.404 269.257 145.54 267.331 142.384 266.231C141.564 265.945 140.523 265.376 140.753 264.54C143.019 263.766 145.581 264.373 147.616 265.636C149.65 266.898 151.242 268.751 152.722 270.633C153.159 271.188 153.6 271.971 153.188 272.546ZM179.662 274.89C175.938 272.514 170.854 272.473 167.091 274.787C166.437 275.189 165.765 275.754 165.715 276.52C165.664 277.286 166.704 277.997 167.22 277.429C169.298 275.137 173.097 274.661 175.676 276.37C176.943 277.209 178.761 277.094 179.913 276.104C180.457 276.047 180.123 275.184 179.662 274.89ZM192.698 294.156C196.539 290.499 201.463 287.385 206.755 287.742C207.3 287.779 208.03 288.237 207.701 288.672L194.578 294.352C193.932 294.631 192.978 294.803 192.698 294.156ZM156.389 290.099C156.518 290.172 156.647 290.251 156.776 290.329C157.298 290.647 157.826 290.97 158.426 290.97C159.174 290.971 159.916 290.07 159.441 289.492C157.947 287.67 155.598 286.58 153.242 286.616C150.886 286.653 148.572 287.813 147.134 289.68C147.311 290.358 148.142 290.671 148.835 290.57C149.335 290.497 149.793 290.273 150.25 290.049C150.427 289.963 150.604 289.877 150.784 289.798C152.563 289.027 154.702 289.142 156.389 290.099ZM183.686 290.493C183.162 290.521 182.572 290.123 182.632 289.601C182.654 289.409 182.758 289.237 182.868 289.078C184.082 287.333 186.275 286.442 188.4 286.422C190.525 286.403 192.59 287.156 194.466 288.153C194.99 288.432 195.579 288.875 195.494 289.462C194.625 290.387 193.185 289.891 191.93 289.458C191.79 289.41 191.653 289.363 191.52 289.319C189.431 288.625 187.057 288.843 185.129 289.905C185.063 289.941 184.996 289.979 184.93 290.017C184.535 290.241 184.134 290.468 183.686 290.493ZM178.682 266.736C180.869 267.519 182.907 268.719 184.652 270.253C184.773 270.36 184.894 270.469 185.014 270.577L185.015 270.578H185.015C185.61 271.113 186.208 271.653 186.933 271.981C187.806 272.375 188.939 272.385 189.623 271.714C188.111 270.554 186.869 269.045 186.022 267.338C185.566 266.419 184.35 266.251 183.325 266.201L178.83 265.981C178.672 266.194 178.616 266.479 178.682 266.736ZM160.365 270.592C159.98 271.082 159.596 271.572 159.141 271.997C158.368 272.719 157.301 273.249 156.267 273.02C157.317 270.473 159.015 268.195 161.155 266.461C162.684 265.223 164.896 265.494 166.834 265.831C166.938 266.531 166.038 266.881 165.354 267.064C163.768 267.487 162.308 268.372 161.2 269.583C160.906 269.905 160.635 270.249 160.365 270.592ZM141.911 271.119L146.079 273.834C146.667 274.218 147.417 274.61 148.028 274.263C148.594 273.941 148.68 273.111 148.385 272.53C148.09 271.95 147.527 271.561 146.987 271.197L143.595 268.913C142.647 268.275 141.104 267.767 140.589 268.786C140.145 269.664 141.087 270.582 141.911 271.119ZM173.111 282.774C172.435 283.097 171.69 282.527 171.159 281.999L169.424 280.278C169.22 280.076 169 279.829 169.036 279.545C169.058 279.365 169.18 279.215 169.305 279.084C170.934 277.379 174.029 277.426 175.605 279.18L173.799 282.035C173.617 282.323 173.418 282.626 173.111 282.774ZM146.851 295.609C147.981 296.006 149.314 296.123 150.31 295.459C148.81 293.734 147.052 292.234 145.113 291.023C144.563 290.68 143.942 290.349 143.3 290.44C142.658 290.532 142.09 291.261 142.401 291.831C143.355 293.577 144.973 294.951 146.851 295.609ZM210.43 279.809L208.829 281.744C208.677 281.927 208.508 282.122 208.275 282.172C207.922 282.249 207.602 281.97 207.348 281.714L205.023 279.359C204.681 279.012 204.779 278.393 205.119 278.045C205.459 277.697 205.962 277.565 206.445 277.507C207.709 277.355 209.019 277.615 210.129 278.239C210.448 278.419 210.782 278.681 210.797 279.047C210.809 279.335 210.614 279.586 210.43 279.809ZM153.122 267.807C153.601 268.323 154.203 268.851 154.904 268.793C155.63 268.732 156.119 268.096 156.599 267.47C157.113 266.8 157.618 266.142 158.394 266.216C158.797 265.551 157.697 265.019 156.92 265.007L150.884 264.911C151.54 265.942 152.291 266.912 153.122 267.807ZM178.103 296.031L165.548 296.086C165.684 295.436 166.415 295.124 167.056 294.95C169.919 294.174 172.964 294.082 175.868 294.684C176.755 294.868 177.736 295.204 178.103 296.031ZM191.389 291.682L187.234 291.869C186.788 291.89 186.214 292.019 186.159 292.463C186.134 292.661 186.234 292.852 186.33 293.027C186.697 293.692 187.086 294.384 187.719 294.803C188.352 295.221 189.305 295.262 189.797 294.685C189.967 294.486 190.066 294.237 190.165 293.991C190.286 293.687 190.407 293.386 190.655 293.183C190.819 293.048 191.02 292.975 191.221 292.901C191.375 292.844 191.529 292.788 191.668 292.704C191.989 292.509 192.194 292.006 191.896 291.777C191.756 291.67 191.565 291.674 191.389 291.682ZM154.978 292.232C155.554 292.603 155.904 293.421 155.534 293.998C155.091 294.69 154.538 295.451 153.721 295.532C152.667 295.637 151.912 294.575 151.399 293.648C151.224 293.333 151.043 292.984 151.108 292.629C151.244 291.884 152.24 291.745 152.996 291.782C153.681 291.816 154.402 291.861 154.978 292.232ZM210.235 285.694C210.856 285.745 211.413 285.324 211.849 284.878C213.179 283.519 214.025 281.695 214.204 279.801C213.764 279.52 213.225 279.956 212.888 280.355L209.491 284.372C209.089 284.848 209.614 285.642 210.235 285.694ZM143.706 276.765C142.816 277.246 141.598 276.999 140.967 276.208C140.336 275.418 140.363 274.176 141.028 273.414C141.12 273.308 141.23 273.207 141.368 273.179C141.568 273.138 141.761 273.258 141.929 273.373L143.581 274.499C143.962 274.758 144.375 275.066 144.456 275.52C144.546 276.03 144.162 276.519 143.706 276.765ZM189.87 267.868C190.531 268.423 191.511 267.849 192.168 267.288L194.304 265.463C193.901 265.078 193.256 265.165 192.711 265.278L187.955 266.261L189.87 267.868ZM93.7178 226.036C93.2319 225.604 93.1077 224.898 93.0935 224.249C93.0769 223.515 93.1627 222.78 93.3479 222.07L96.5003 226.174C96.6879 226.419 96.8424 226.84 96.5648 226.974C96.1707 226.71 95.6861 226.635 95.2043 226.561C94.6599 226.476 94.119 226.393 93.7178 226.036ZM214.766 260.091C215.165 260.588 216.005 260.481 216.463 260.037C216.921 259.593 217.09 258.937 217.221 258.313C217.252 258.163 217.282 258.001 217.219 257.861C217.059 257.506 216.532 257.613 216.179 257.777C215.228 258.221 214.109 259.273 214.766 260.091ZM179.092 78.6426C179.478 77.6786 180.376 77.0282 181.26 76.485C183.929 74.8452 186.894 73.6877 189.967 73.084C190.703 72.9397 191.579 72.8692 192.089 73.4178C192.664 74.035 192.376 75.1032 191.739 75.6547C191.171 76.1465 190.424 76.3483 189.693 76.5453C189.603 76.5696 189.513 76.5939 189.425 76.6181C186.967 77.2987 184.654 78.5006 182.685 80.1215C181.927 80.7446 181.03 81.4784 180.085 81.2156C179.085 80.9375 178.706 79.606 179.092 78.6426ZM123.804 78.8675C123.091 78.481 122.608 77.517 123.053 76.8377C123.311 76.443 123.792 76.2631 124.25 76.1465C127.956 75.2062 131.792 76.8667 135.145 78.7059C135.899 79.1196 136.675 79.5705 137.151 80.2877C137.627 81.0056 137.696 82.0684 137.076 82.6643C136.037 83.6626 134.39 82.6359 133.217 81.7991C131.164 80.3345 128.696 79.4563 126.179 79.2947C126.067 79.2876 125.954 79.2817 125.84 79.2758V79.2752C125.135 79.2379 124.419 79.2001 123.804 78.8675ZM162.652 131.998L160.215 125.046C158.045 126.612 156.423 128.922 155.687 131.494C155.021 130.953 154.996 130.037 154.972 129.137C154.965 128.868 154.958 128.601 154.934 128.346C154.79 126.83 153.838 125.415 152.488 124.711C151.138 124.006 149.434 124.033 148.107 124.781C148.46 125.551 149.288 125.795 150.141 126.047C150.708 126.214 151.285 126.384 151.74 126.713C152.702 127.409 152.977 128.719 152.992 129.906C152.996 130.203 152.988 130.503 152.981 130.803C152.958 131.7 152.935 132.598 153.215 133.442C153.306 133.715 153.433 133.987 153.654 134.17C154.28 134.69 155.226 134.258 155.86 133.748C157.29 132.594 158.415 131.065 159.09 129.357C159.686 129.951 159.906 130.787 160.124 131.616C160.188 131.859 160.252 132.103 160.325 132.338C160.648 133.378 161.42 134.49 162.508 134.439C163.233 134.406 163.817 133.86 164.33 133.347L167.279 130.401C167.634 130.046 168.02 129.595 167.905 129.105C167.796 128.636 167.239 128.384 166.761 128.452C166.284 128.519 165.876 128.82 165.502 129.125C164.455 129.979 163.498 130.944 162.652 131.998ZM155.916 104.111C156.073 102.837 156.16 101.353 155.224 100.474C153.477 98.8346 151.947 96.9646 150.686 94.9271C150.137 94.0388 149.62 93.0009 149.882 91.9895C150.278 90.4622 152.135 89.9094 153.701 89.7189C156.208 89.4135 158.745 89.362 161.261 89.5644C162.343 89.6514 163.489 89.8142 164.316 90.5154C165.143 91.2167 165.442 92.6393 164.643 93.3731C160.728 96.9723 158.436 102.274 158.495 107.592C159.946 108.534 161.422 109.488 163.076 109.998C164.73 110.508 166.615 110.525 168.108 109.647C168.736 109.278 169.263 108.772 169.791 108.266C170.155 107.916 170.52 107.566 170.92 107.259C171.897 106.509 173.298 106.045 174.345 106.693L170.359 110.363C168.77 111.826 166.798 113.399 164.695 112.906C164 112.743 163.388 112.367 162.775 111.989C162.409 111.764 162.044 111.538 161.658 111.357C159.6 110.388 157.184 110.751 154.96 111.228C154.826 111.257 154.692 111.286 154.557 111.315L154.552 111.316C152.453 111.771 150.28 112.242 148.22 111.676C146.026 111.074 144.101 108.794 144.788 106.625C146.169 108.646 148.574 109.927 151.023 109.946C151.963 109.953 152.932 109.774 153.711 109.247C155.305 108.169 155.68 106.022 155.916 104.111Z" fill="#00160A"/>
</g>
<defs>
<filter id="filter0_d_11_284" x="0" y="0" width="408" height="374.901" filterUnits="userSpaceOnUse" color-interpolation-filters="sRGB">
<feFlood flood-opacity="0" result="BackgroundImageFix"/>
<feColorMatrix in="SourceAlpha" type="matrix" values="0 0 0 0 0 0 0 0 0 0 0 0 0 0 0 0 0 0 127 0" result="hardAlpha"/>
<feOffset dy="4"/>
<feGaussianBlur stdDeviation="2"/>
<feComposite in2="hardAlpha" operator="out"/>
<feColorMatrix type="matrix" values="0 0 0 0 0 0 0 0 0 0 0 0 0 0 0 0 0 0 0.25 0"/>
<feBlend mode="normal" in2="BackgroundImageFix" result="effect1_dropShadow_11_284"/>
<feBlend mode="normal" in="SourceGraphic" in2="effect1_dropShadow_11_284" result="shape"/>
</filter>
</defs>
</svg>
