<?xml version="1.0" encoding="utf-8"?>
<svg viewBox="-0.956 -1.913 181.936 167.913" fill="none" xmlns="http://www.w3.org/2000/svg">
  <path fill-rule="evenodd" clip-rule="evenodd" d="M99.7757 0C146.533 0 156.377 64.7992 156.569 65.3325C156.766 65.8819 156.951 66.4472 157.131 66.996C157.495 68.1107 157.965 69.1837 158.33 70.2909C158.553 70.9664 158.963 71.5259 159.238 72.1637C159.771 73.3824 160.424 74.5453 161.188 75.6349C161.503 76.0664 161.751 76.5432 161.923 77.0491C162.043 77.4363 162.443 77.5397 162.616 77.8813C162.895 78.4344 163.267 78.9397 163.59 79.4709C163.663 79.6576 163.831 79.7904 164.03 79.8181L163.967 80.3453C164.084 80.5355 164.124 80.2787 164.246 80.3237C164.399 80.5296 164.617 80.7123 164.639 81.0256C164.659 81.32 165.003 81.3477 165.121 81.6045C165.378 82.1621 166.095 82.4464 166.085 83.1779C166.601 83.5016 166.854 84.0573 167.243 84.4933C167.443 84.6941 167.565 84.9584 167.588 85.2392L167.591 85.304C167.589 85.5832 168.127 85.5205 167.982 85.9013C168.807 86.5205 169.022 87.532 169.457 88.3701C170.156 89.7147 170.961 91.0139 171.436 92.4864C171.673 93.2229 172.134 93.9197 172.39 94.6656C172.966 96.3421 173.658 97.9821 174.033 99.7283C174.187 100.449 174.502 101.137 174.65 101.86L174.821 102.695C175.074 103.95 175.315 105.207 175.475 106.479C175.557 106.765 175.557 107.069 175.474 107.356C175.337 107.682 175.702 107.891 175.732 108.219C175.768 108.607 175.613 108.975 175.725 109.387C175.786 109.615 175.725 109.979 175.796 110.243C176.025 111.1 175.734 111.984 175.984 112.835C176.024 113.165 175.989 113.498 175.883 113.812C175.71 114.86 176.026 115.93 175.711 116.954C175.563 117.458 175.535 117.99 175.628 118.506L175.667 118.706C175.695 118.853 175.713 118.997 175.641 119.096C175.353 119.489 175.427 119.953 175.37 120.382L175.359 120.454C175.277 120.935 175.362 121.439 175.217 121.93C175.018 122.41 174.907 122.921 174.887 123.44C174.961 124.32 174.665 125.11 174.483 125.927C174.393 126.335 174.467 126.821 174.018 127.124C173.79 127.279 174.329 127.578 174.002 127.805L173.963 127.829C173.723 127.964 173.734 128.182 173.802 128.444C173.863 128.683 173.445 128.849 173.565 129.094C173.685 129.338 173.739 129.695 173.599 129.74C173.25 129.855 173.605 130.234 173.311 130.306C173.283 130.322 173.263 130.35 173.258 130.383C173.158 131.302 172.566 132.056 172.419 132.975C172.309 133.523 172.095 134.046 171.79 134.516C171.537 134.969 171.322 135.442 171.147 135.93C170.819 136.752 170.257 137.438 169.941 138.255C169.855 138.477 169.282 138.403 169.573 138.857C169.239 138.975 169.34 139.321 169.206 139.538C169.058 139.701 168.885 139.841 168.694 139.952C168.571 140.438 168.334 140.889 168.004 141.267C167.426 142.112 166.796 142.919 166.116 143.685L165.555 144.313C164.804 145.151 164.03 145.971 163.041 146.549C162.787 146.698 162.902 146.979 162.693 147.132C161.481 148.027 160.364 149.042 158.985 149.721C158.407 150.005 157.913 150.509 157.322 150.805C156.204 151.366 155.166 152.065 153.97 152.502L153.757 152.577C152.995 152.83 152.245 153.214 151.472 153.493C149.883 154.117 148.225 154.548 146.533 154.777L145.49 154.892C144.562 154.995 143.633 155.089 142.696 155.115C142.252 155.127 141.827 154.986 141.421 155.037C141.025 155.087 140.624 155.055 140.242 154.942C139.94 154.858 139.684 155.117 139.359 154.978C139.109 154.822 138.8 154.798 138.531 154.912L138.478 154.937C138.323 155.026 138.02 154.861 137.785 154.808C137.442 154.76 137.106 154.677 136.781 154.56C136.528 154.443 136.207 154.818 136.031 154.419C135.713 154.667 114.05 149.519 94.1512 159.973C92.5306 161.046 90.6344 161.518 88.9029 162.351C88.0978 162.74 87.1931 162.917 86.3267 163.183L86.1416 163.241C84.612 163.735 83.0435 164.073 81.4771 164.425C80.0381 164.737 78.58 164.953 77.1123 165.074C76.0571 165.169 74.9971 165.213 73.9445 165.328C73.5176 165.375 73.0992 165.074 72.6816 165.332C71.7429 165.077 70.7579 165.387 69.8219 165.098C69.1995 165.282 68.6147 165.054 68.0427 164.886C67.6059 164.756 67.1944 165.025 66.7533 164.834C66.3517 164.625 65.9019 164.525 65.4493 164.545C64.6979 164.66 64.0437 164.384 63.3595 164.238C61.7691 163.9 60.1843 163.534 58.6053 163.14C58.0883 163.011 57.5075 163.061 57.0645 162.665C56.6757 162.318 56.0624 162.536 55.6805 162.126C55.5413 161.977 55.3635 162.266 55.1536 162.153C54.744 161.933 54.2179 162.078 53.8352 161.682C53.5517 161.388 53.0168 161.587 52.7032 161.232L52.6619 161.18C52.4765 160.923 51.988 161.529 51.8435 160.957C51.2595 160.912 50.7755 160.593 50.2555 160.375C49.8248 160.195 49.3163 160.297 48.9275 159.922C48.5963 159.602 47.9704 159.837 47.6835 159.358C46.9813 159.352 46.4637 158.827 45.7947 158.689C45.2869 158.555 44.7992 158.355 44.3448 158.092C43.6243 157.722 42.8928 157.373 42.1557 157.042C41.8915 156.919 41.6341 156.781 41.3848 156.63C41.2451 156.548 41.2112 156.367 41.0115 156.323C39.7477 156.043 38.6851 155.307 37.6056 154.662C36.9899 154.344 36.4011 153.978 35.8443 153.566L35.6597 153.427C35.4968 153.287 35.1584 153.218 35.0152 153.023C34.6157 152.481 34.0184 152.215 33.4765 151.889L33.3869 151.834C33.0816 151.655 32.8043 151.431 32.5632 151.172C32.5176 151.122 32.4992 151.015 32.4507 151.003C31.5515 150.781 31.0147 150.038 30.3272 149.519C29.7357 149.073 29.2187 148.529 28.6363 148.074L28.4144 147.908C27.0517 146.934 12.1391 130.524 10.4493 127.693L9.96573 126.882C9.48285 126.07 9.00552 125.252 8.56605 124.418L8.19178 123.708C7.8181 122.997 7.45029 122.28 7.12511 121.551L6.69007 120.578C5.82207 118.63 4.97271 116.673 4.2488 114.662C3.60327 112.868 3.06885 111.045 2.52933 109.22C2.18376 108.048 1.89175 106.871 1.64506 105.677C1.25095 103.77 0.899489 101.854 0.590743 99.9307C0.302769 98.1197 0.409276 96.2821 0.0247157 94.4917C0.276662 93.3923 -0.186564 92.2763 0.101063 91.1781C-0.112297 90.6357 0.0753289 90.0731 0.0953822 89.5384C0.115942 88.9867 -0.00784429 88.4085 0.212529 87.8493C0.313489 87.5952 0.0801024 87.2899 0.206556 86.9797C0.345356 86.7216 0.361382 86.4149 0.250236 86.1437C0.624929 85.9715 0.178316 85.7064 0.333916 85.4611C0.501676 85.1947 0.575782 84.8803 0.544529 84.5672C0.435409 83.8667 0.839009 83.2197 0.768155 82.5867C0.694262 81.9395 1.01394 81.3907 1.01296 80.8104L1.00882 80.7013C0.953649 79.9397 1.4981 79.3661 1.51626 78.6456C1.51797 78.5827 1.66701 78.5245 1.74869 78.4619C1.7225 78.2997 1.54325 78.3365 1.4161 78.2104C1.61909 78.0341 1.79669 77.8309 1.94386 77.6061C2.05525 77.2979 2.13437 76.9792 2.17992 76.6547L1.66381 75.9888C1.85426 75.608 1.78786 75.2616 2.04216 74.9629C2.15282 74.8323 2.09111 74.4336 2.10477 74.1581C2.12279 73.7965 2.58757 73.5811 2.47544 73.2955C2.38896 72.9669 2.41698 72.6187 2.5549 72.3083C3.21983 69.3768 3.89714 66.4483 4.58682 63.5224C4.65936 63.2088 4.59624 62.8144 4.98218 62.6307C4.56045 62.1952 5.22271 62.0432 5.23301 61.6981C5.28677 61.3755 5.41109 61.0688 5.59712 60.7995C5.86053 60.296 5.88474 59.6707 6.03477 59.1032C6.07429 58.7019 6.22629 58.32 6.47333 58.0008C6.73024 57.7349 6.69322 57.2715 6.88666 56.8979C7.15994 56.4467 7.37173 55.9611 7.51645 55.4536C7.56005 55.0893 7.70536 54.7443 7.93578 54.4581C8.14042 54.2323 7.97237 53.7645 8.37008 53.5941C8.48162 52.9387 8.87306 52.412 9.16288 51.8376L9.21592 51.7293C9.92778 50.2512 10.7279 48.8171 11.6119 47.4344C12.3463 46.2709 13.061 45.0952 13.8066 43.9389C14.0492 43.5656 14.3072 43.1939 14.5739 42.8395C15.5006 41.5363 16.4987 40.2853 17.5637 39.0923C18.5379 38.06 19.4664 36.9813 20.4891 35.9888C21.0328 35.4608 21.4776 34.8125 22.0056 34.2517C23.2496 32.9277 24.5269 31.6397 25.8704 30.4173C27.0051 29.2965 28.2459 28.288 29.5755 27.4061C29.9371 27.1861 30.2341 26.864 30.5832 26.6205C31.0067 26.3872 31.4131 26.1243 31.7995 25.8333C32.2488 25.4107 32.8003 25.1419 33.2541 24.7504C33.6064 24.4467 34.1701 24.62 34.4224 24.0733C34.6061 23.6757 35.2941 23.8216 35.5256 23.3571C36.1608 23.3357 36.4573 22.7208 37.0341 22.5187L37.1109 22.4949C37.7187 22.3291 38.2373 21.8387 38.7947 21.4909C39.3325 21.1101 39.8949 20.7656 40.4789 20.46C41.5749 19.9664 42.5208 19.2144 43.5923 18.7045C44.6136 18.2192 45.5328 17.5085 46.6469 17.2381C46.9101 17.1744 46.8611 16.9421 47.0421 16.8432C47.2307 16.7395 47.4371 16.8083 47.6072 16.6888C48.3117 16.2291 53.0184 0 99.7757 0Z" fill="#FFC239" transform="matrix(1, 0, 0, 1, -1.4210854715202004e-14, 0)"/>
  <path fill-rule="evenodd" clip-rule="evenodd" d="M47.0331 34.7863C45.4691 35.6687 43.1789 34.5431 42.9221 32.7658C43.9197 32.7125 44.9859 32.6346 45.7747 32.0215C46.5632 31.4082 46.8392 30.0503 46.0488 29.4394C39.6131 28.649 33.3523 26.4626 27.824 23.0741C31.5989 21.9367 34.8469 19.5375 38.3928 17.8135C41.9384 16.0895 46.2269 15.0701 49.7632 16.8133C53.2355 18.525 57.2328 16.3415 60.8563 14.9786C67.1568 12.6087 74.3819 12.8074 80.5427 15.5199C85.0376 17.4991 92.6541 14.2869 97.5098 13.5501C105.441 12.3466 113.184 17.9055 121.149 16.9428C120.294 17.5079 119.44 18.0727 118.585 18.6378C119.427 18.561 120.273 18.5298 121.118 18.5447C114.508 21.7077 107.898 24.8703 101.289 28.0333C102.963 28.7106 104.638 29.3879 106.312 30.0653C105.918 31.3271 104.507 32.1794 103.207 31.9405C104.253 32.773 105.299 33.6055 106.346 34.4381C105.229 35.2311 103.816 35.5957 102.455 35.4413C103.904 36.377 105.1 37.701 105.885 39.2375C109.338 38.0871 113.12 37.9455 116.649 38.8343C113.46 39.2525 110.272 39.6706 107.083 40.0885C107.565 41.3994 108.046 42.7106 108.528 44.0215C112.693 43.0682 117.12 43.285 121.172 44.6405C117.154 44.7429 113.135 44.845 109.117 44.9474C109.023 50.2786 106.369 55.7154 101.709 58.3063C97.0482 60.897 87.7357 63.2007 84.6512 55.6573C82.2896 57.2071 82.4568 60.9327 84.1405 63.2007C85.8243 65.4687 88.4992 66.7239 90.9184 68.1821C98.9547 73.0253 105.016 81.0455 107.481 90.0986C109.947 99.1517 108.789 109.138 104.319 117.387C110.346 118.324 115.947 121.754 119.521 126.698C127.217 123.116 131.48 114.945 137.375 108.838C144.082 101.89 153.339 97.4615 162.957 96.6002C168.647 96.0906 175.137 97.1879 178.456 101.838C182.771 107.882 178.793 117.28 171.906 120.058C166.447 122.261 160.29 121.153 154.418 121.569C142.61 122.406 132.244 129.368 122.507 136.101C122.11 138.281 122.907 140.641 124.545 142.134C128.027 138.534 132.421 135.822 137.199 134.321C138.966 133.767 141.614 133.911 141.81 135.752C141.884 136.449 141.518 137.11 141.147 137.704C137.961 142.812 133.468 147.098 128.215 150.039C125.443 151.592 122.345 152.795 119.173 152.617C116 152.44 112.769 150.608 111.691 147.619C111.192 146.234 111.138 144.63 110.192 143.502C108.592 141.592 105.519 142.164 103.277 143.248C101.034 144.333 98.6432 145.808 96.2368 145.164C90.2208 143.555 83.9597 142.866 77.7376 143.126C69.8139 143.458 61.74 145.302 54.0629 143.312C51.4984 142.647 48.6285 141.599 46.3565 142.962C41.8792 145.648 44.8992 154.246 40.3059 156.728C38.6787 157.608 36.6848 157.283 34.8899 156.838C26.9576 154.869 19.5173 150.948 13.4087 145.519C12.82 144.996 12.2134 144.408 12.0484 143.638C11.5534 141.327 14.9634 140.366 17.2869 140.794C21.2339 141.52 25.0088 143.166 28.228 145.563C29.3563 146.403 31.0733 145.423 31.5512 144.099C32.0293 142.776 31.7005 141.319 31.5139 139.925C30.3355 131.118 35.8608 121.858 44.1717 118.712C39.14 111.37 37.2267 101.962 38.9907 93.2367C40.7547 84.5119 46.1725 76.5861 53.6616 71.7749C56.6533 69.8527 60.0907 68.2807 61.9973 65.2791C63.904 62.2778 63.0672 57.2421 59.5792 56.5501C56.2928 60.1093 50.9475 61.6149 46.2867 60.2935C41.6256 58.9725 37.8653 54.8861 36.9352 50.1319C33.8416 51.1765 30.7483 52.2212 27.6547 53.266C30.4005 51.1501 33.652 49.6951 37.0597 49.0578C37.3867 47.6407 37.7136 46.2239 38.0408 44.8069C32.1379 44.4261 26.1517 45.3975 20.6725 47.6255C24.0443 45.0874 28.3344 43.7978 32.5467 44.0557C36.8312 44.3181 41.1867 42.2218 43.6541 38.7093C42.1104 38.1666 40.7229 37.1869 39.6949 35.9133C41.2696 35.0586 43.1765 34.8373 44.9048 35.3082M77.3147 127.721C77.0336 127.995 76.7312 128.32 76.7512 128.711C76.7709 129.103 77.3584 129.395 77.5611 129.06C78.6675 127.227 80.5912 125.91 82.6994 125.54C84.808 125.171 87.0648 125.757 88.7277 127.105C89.308 127.575 89.8259 128.137 90.4888 128.481C90.7272 128.605 91.1357 128.608 91.1456 128.339C91.1488 128.251 91.0984 128.171 91.0488 128.098C89.8547 126.338 88.0691 124.987 86.0509 124.316C84.2816 123.728 82.2315 123.691 80.6493 124.677C80.0747 125.035 79.5845 125.511 79.0994 125.984C78.5045 126.563 77.9096 127.142 77.3147 127.721ZM68.7349 124.519C66.4443 124.216 63.9781 124.985 62.4528 126.72C62.184 127.026 61.9395 127.37 61.8469 127.767C61.7547 128.164 61.8416 128.623 62.1488 128.89C63.3288 127.057 65.4256 125.848 67.6029 125.745C69.7805 125.642 71.9819 126.648 73.3291 128.362C73.5397 128.63 73.7408 128.923 74.0397 129.087C74.3389 129.251 74.7741 129.23 74.956 128.942C75.1736 128.597 74.9107 128.157 74.6424 127.851C73.1205 126.112 71.0253 124.822 68.7349 124.519ZM84.892 122.174C84.8565 122.561 85.3683 122.802 85.736 122.675C86.1037 122.548 86.3475 122.21 86.5936 121.909C88.6413 119.404 92.5405 118.65 95.3747 120.21C95.7464 119.896 95.7677 119.294 95.5189 118.875C95.2701 118.457 94.816 118.2 94.3525 118.052C93.3485 117.731 92.2584 117.841 91.2256 118.05C88.7805 118.544 86.3109 119.703 85.0256 121.841C84.9635 121.944 84.9032 122.054 84.892 122.174ZM75.2803 130.299C74.2755 130.369 73.292 130.635 72.3512 130.995C71.0512 131.492 69.7712 132.217 69.0101 133.383C70.1261 133.699 71.196 132.867 72.2155 132.314C74.5024 131.072 77.4688 131.201 79.6403 132.635C80.3213 133.084 81.1965 133.666 81.8608 133.191C80.3069 131.243 77.7661 130.126 75.2803 130.299ZM79.4083 129.671C80.1704 129.274 80.7797 128.629 81.5357 128.22C82.5768 127.657 83.8738 127.592 84.9661 128.048C85.5592 128.296 86.0843 128.683 86.6688 128.951C87.2531 129.218 87.9493 129.357 88.5315 129.085C88.596 129.055 88.6629 129.015 88.6901 128.949C88.7344 128.842 88.6557 128.726 88.5795 128.639C87.2765 127.152 85.2352 126.346 83.2677 126.543C81.3003 126.739 79.4584 127.932 78.4752 129.648C78.6805 129.918 79.1075 129.828 79.4083 129.671ZM64.1448 129.742C64.5531 129.51 64.8725 129.151 65.2459 128.866C65.9925 128.296 66.9651 128.033 67.8981 128.142C68.9381 128.262 69.8757 128.812 70.7357 129.41C70.9872 129.584 71.244 129.768 71.5421 129.837C71.8405 129.906 72.1957 129.831 72.3643 129.576C72.5312 129.323 72.4643 128.97 72.2856 128.726C72.1069 128.481 71.8389 128.32 71.5776 128.167C70.5147 127.544 69.3915 126.92 68.1608 126.857C66.6224 126.778 65.1928 127.579 63.8624 128.356C63.3227 128.671 62.7032 129.147 62.8173 129.762C63.1867 130.052 63.7365 129.974 64.1448 129.742ZM71.0725 123.779C71.3504 124.138 71.8941 123.753 72.2005 123.418C73.1451 122.386 74.5064 121.747 75.9035 121.68C77.3008 121.613 78.7168 122.119 79.7557 123.055C80.0179 123.292 80.2941 123.571 80.6469 123.58C80.9995 123.59 81.3173 123.098 81.0376 122.883C79.5397 121.732 77.7973 120.792 75.9125 120.667C74.028 120.543 71.9968 121.389 71.1243 123.064C71.0075 123.288 70.9179 123.579 71.0725 123.779ZM87.7357 123.464C87.9845 123.359 88.1666 123.145 88.357 122.953C89.8072 121.495 92.2637 121.168 94.044 122.198C94.4893 122.456 95.1592 122.74 95.4178 122.295C95.6336 121.925 95.2491 121.493 94.8821 121.271C92.4875 119.819 89.0739 120.372 87.2603 122.506C87.0755 122.723 86.8984 123.021 87.0253 123.277C87.1453 123.519 87.4869 123.569 87.7357 123.464ZM89.0594 123.601C88.9565 123.687 88.8539 123.783 88.8107 123.91C88.6896 124.265 89.1205 124.597 89.4939 124.567C89.8675 124.537 90.1848 124.297 90.5237 124.138C91.3499 123.748 92.3427 123.841 93.1813 124.203C93.5131 124.346 93.8344 124.531 94.1917 124.585C94.549 124.639 94.9659 124.52 95.1288 124.198C93.7077 122.436 90.7962 122.15 89.0594 123.601ZM66.5904 122.925C66.8027 123.025 67.092 123.006 67.2283 122.815C67.4139 122.556 67.2152 122.203 67.0181 121.953C66.3512 121.105 65.6339 120.27 64.7171 119.701C63.8003 119.132 62.6456 118.859 61.6248 119.207C61.5208 119.584 61.9901 119.841 62.3595 119.97C63.7816 120.465 65.0725 121.333 66.0685 122.463C66.2235 122.638 66.3784 122.826 66.5904 122.925ZM79.1581 123.871C77.4797 122.801 75.1888 122.782 73.4931 123.825C73.1984 124.006 72.8957 124.261 72.8728 124.606C72.8499 124.951 73.3186 125.272 73.5512 125.015C74.4877 123.983 76.1995 123.768 77.3619 124.538C77.9325 124.916 78.752 124.865 79.2709 124.418C79.516 124.393 79.3656 124.004 79.1581 123.871ZM91.3667 129.663C88.9821 129.502 86.7629 130.905 85.032 132.553C85.1581 132.844 85.588 132.767 85.8792 132.641C87.8504 131.788 89.8216 130.935 91.7928 130.082C91.9408 129.886 91.612 129.679 91.3667 129.663ZM68.6707 130.725C68.964 130.891 69.2512 131.117 69.5883 131.118C69.9256 131.118 70.2597 130.712 70.0459 130.451C69.3725 129.63 68.3141 129.139 67.2525 129.156C66.1907 129.172 65.148 129.695 64.5 130.536C64.58 130.842 64.9541 130.983 65.2667 130.937C65.5792 130.891 65.8547 130.715 66.1448 130.59C66.9467 130.242 67.9104 130.294 68.6707 130.725ZM80.496 130.501C80.469 130.736 80.7352 130.915 80.9712 130.902C81.2072 130.89 81.4144 130.751 81.6213 130.638C82.4901 130.159 83.5597 130.061 84.5011 130.373C85.1043 130.574 85.8568 130.901 86.292 130.438C86.3304 130.174 86.0648 129.974 85.8288 129.848C84.9835 129.399 84.0528 129.059 83.0952 129.068C82.1376 129.077 81.1496 129.479 80.6027 130.265C80.5531 130.336 80.5059 130.414 80.496 130.501ZM78.716 120.197C79.7019 120.55 80.62 121.091 81.4064 121.782C81.7307 122.067 82.0411 122.383 82.4344 122.56C82.8277 122.738 83.3384 122.743 83.6464 122.44C82.9651 121.918 82.4056 121.238 82.0237 120.468C81.8181 120.054 81.2701 119.978 80.8083 119.956C80.1331 119.923 79.4581 119.89 78.7829 119.857C78.7117 119.953 78.6864 120.081 78.716 120.197ZM69.9107 122.568C70.2592 122.242 70.5165 121.832 70.8384 121.48C71.3379 120.934 71.9957 120.535 72.7101 120.345C73.0187 120.263 73.424 120.105 73.3773 119.789C72.504 119.638 71.5072 119.515 70.8184 120.073C69.8539 120.855 69.0888 121.881 68.6157 123.029C69.0813 123.132 69.5621 122.893 69.9107 122.568ZM62.1467 122.172C62.7725 122.58 63.3987 122.988 64.0245 123.396C64.2896 123.568 64.6277 123.745 64.9027 123.589C65.1579 123.444 65.1968 123.07 65.0637 122.808C64.9309 122.547 64.6773 122.371 64.4339 122.207C63.9243 121.864 63.4147 121.521 62.9051 121.178C62.4781 120.891 61.7829 120.662 61.5509 121.121C61.3507 121.516 61.7749 121.93 62.1467 122.172ZM75.3261 127.075C75.5656 127.313 75.9011 127.57 76.2056 127.424C76.3443 127.358 76.4336 127.221 76.5157 127.091C76.7872 126.662 77.0587 126.233 77.3299 125.804C76.6195 125.014 75.2248 124.993 74.4907 125.761C74.4344 125.82 74.3795 125.888 74.3693 125.969C74.3533 126.097 74.4525 126.208 74.5443 126.299C74.8048 126.558 75.0656 126.816 75.3261 127.075ZM64.3725 133.208C64.8816 133.387 65.4824 133.439 65.9312 133.14C65.2555 132.363 64.4632 131.687 63.5893 131.142C63.3413 130.987 63.0619 130.838 62.7725 130.879C62.4832 130.92 62.2272 131.249 62.3672 131.505C62.7973 132.292 63.5261 132.911 64.3725 133.208ZM92.3011 126.96C92.5416 126.669 92.7821 126.379 93.0227 126.088C93.1056 125.988 93.193 125.875 93.188 125.745C93.1813 125.58 93.0304 125.462 92.8867 125.38C92.3867 125.099 91.7965 124.982 91.2269 125.051C91.0093 125.077 90.7824 125.136 90.6293 125.293C90.4762 125.45 90.432 125.729 90.5861 125.885C90.9352 126.239 91.2845 126.593 91.6339 126.947C91.748 127.062 91.8925 127.188 92.0512 127.153C92.1562 127.13 92.2325 127.043 92.3011 126.96ZM67.1984 120.68C67.4141 120.912 67.6853 121.15 68.0013 121.124C68.6787 121.068 68.8973 119.899 69.5741 119.963C69.7557 119.663 69.26 119.423 68.9096 119.418C68.0029 119.403 67.0963 119.389 66.1899 119.375C66.4856 119.839 66.8237 120.276 67.1984 120.68ZM72.7976 133.423C74.6835 133.414 76.5693 133.406 78.4555 133.398C78.2901 133.025 77.8477 132.874 77.4483 132.791C76.1397 132.52 74.7675 132.561 73.4773 132.911C73.1885 132.989 72.8589 133.13 72.7976 133.423ZM84.4421 131.438C83.8181 131.466 83.1941 131.495 82.5701 131.523C82.3688 131.532 82.1101 131.59 82.0853 131.79C82.0744 131.88 82.1192 131.966 82.1627 132.044C82.3277 132.344 82.5032 132.656 82.7885 132.844C83.0739 133.033 83.5032 133.052 83.7251 132.791C83.8952 132.592 83.9085 132.281 84.1115 132.115C84.2421 132.007 84.4235 131.986 84.568 131.899C84.7128 131.811 84.8048 131.584 84.6707 131.481C84.6077 131.433 84.5213 131.435 84.4421 131.438ZM68.2853 132.482C68.452 132.222 68.2944 131.854 68.0347 131.686C67.7749 131.519 67.4501 131.499 67.1416 131.483C66.8008 131.467 66.352 131.529 66.2907 131.865C66.2616 132.025 66.3432 132.182 66.4219 132.324C66.6531 132.742 66.9933 133.22 67.4683 133.173C67.8365 133.137 68.0856 132.794 68.2853 132.482ZM92.9347 128.74C93.2147 128.763 93.4656 128.573 93.6621 128.372C94.2613 127.76 94.6427 126.938 94.7229 126.084C94.5248 125.958 94.2821 126.154 94.1301 126.334C93.62 126.938 93.1098 127.541 92.5994 128.144C92.4181 128.359 92.6547 128.717 92.9347 128.74ZM61.7211 124.466C62.0056 124.822 62.5544 124.933 62.9555 124.716C63.1608 124.606 63.3339 124.385 63.2931 124.155C63.2568 123.951 63.0707 123.812 62.8989 123.695C62.6507 123.526 62.4027 123.357 62.1544 123.188C62.0787 123.136 61.9915 123.082 61.9019 123.1C61.8397 123.113 61.7901 123.159 61.7485 123.206C61.4488 123.55 61.4365 124.11 61.7211 124.466ZM83.7579 120.707C84.0557 120.957 84.4973 120.699 84.7931 120.446C85.1139 120.172 85.4347 119.898 85.7557 119.624C85.5741 119.45 85.2837 119.489 85.0379 119.54C84.3235 119.688 83.6091 119.835 82.8947 119.983C83.1824 120.224 83.4701 120.466 83.7579 120.707ZM94.9765 117.203C95.1562 117.427 95.5349 117.378 95.7411 117.178C95.9474 116.978 96.0235 116.683 96.0826 116.402C96.0968 116.334 96.1101 116.261 96.0819 116.198C96.0096 116.038 95.772 116.086 95.6131 116.16C95.1848 116.36 94.6805 116.834 94.9765 117.203Z" fill="white" transform="matrix(1, 0, 0, 1, -1.4210854715202004e-14, 0)"/>
  <path fill-rule="evenodd" clip-rule="evenodd" d="M38.9905 93.2377C40.7545 84.5129 46.786 77.2091 54.2751 72.3979C50.4887 77.5886 38.8687 86.1006 42.6036 95.5838C48.5735 110.743 71.798 113.127 70.99 113.292C57.2537 116.092 37.6772 99.7339 38.9905 93.2377Z" fill="#E7EAEE" transform="matrix(1, 0, 0, 1, -1.4210854715202004e-14, 0)"/>
  <path fill-rule="evenodd" clip-rule="evenodd" d="M82.9285 17.5237C81.9728 17.6397 81.1309 18.405 80.9245 19.3453C88.66 15.1861 98.0032 14.117 106.478 16.4207C106.485 20.6949 103.487 24.8058 99.4152 26.1047L90.5875 28.921C92.9163 29.1794 95.3091 28.8378 97.4725 27.9383C98.2413 29.1495 99.5075 30.0343 100.909 30.3391L98.1957 30.9343C98.5957 32.1533 99.4125 33.2314 100.478 33.9461C99.5739 33.6365 98.568 33.6333 97.6618 33.9373L98.2693 36.1437C94.2683 35.5885 89.9928 36.1333 86.6227 38.3605C83.2525 40.5877 80.9896 44.6818 81.5968 48.6754C82.3075 44.3333 85.2832 40.4269 89.2803 38.5882C93.2773 36.7493 98.1797 37.0319 101.939 39.3175L99.3891 41.2063C100.369 41.5959 101.529 41.4965 102.428 40.9458C104.391 41.8143 103.847 45.4055 101.715 45.6543L104.535 45.8506C105.024 50.6458 102.062 55.5911 97.6032 57.4229C93.1445 59.2546 87.5611 57.8202 84.5376 54.0661C80.7845 55.9826 81.0477 61.7914 83.7224 65.0479C85.5896 67.3213 88.1611 68.7981 90.7368 70.2773C91.8507 70.917 92.9656 71.5573 94.0245 72.2629C99.6499 76.0098 103.843 81.8527 105.592 88.3818C102.538 90.4271 99.8203 92.9754 97.5832 95.8924C100.893 95.7383 104.134 94.3879 106.575 92.1471L107.096 97.1885C104.417 98.0138 102.009 99.6981 100.315 101.932C102.703 102.176 105.166 101.618 107.216 100.369C106.482 106.17 105.157 111.896 103.267 117.43L97.1085 117.379C98.5696 113.341 100.05 108.996 98.9733 104.839C97.8968 100.682 93.0683 97.2503 89.2677 99.2501C93.6387 95.7269 96.9485 90.9042 98.664 85.5589L87.6571 99.7663L79.2107 99.8381C78.9451 95.8583 78.6896 91.7797 79.8211 87.9549C80.9523 84.1303 83.7771 80.5498 87.6691 79.6778C88.0912 79.5831 88.5408 79.5061 88.9963 79.4282C90.8984 79.1023 92.9043 78.7586 93.4626 77.0396C87.1536 76.6725 80.8293 80.7114 78.5088 86.5898C76.8552 90.7783 77.1464 95.4474 77.4632 99.9397C71.6307 99.0983 65.6584 99.2335 59.8699 100.338C58.8651 96.9125 57.8229 93.4103 55.7149 90.5293C53.6072 87.6485 50.1851 85.4634 46.6331 85.8191C52.3533 86.6693 55.1869 93.0258 57.344 98.3917C59.5011 103.758 63.4168 109.887 69.1757 109.356C70.8157 109.204 71.3379 111.898 70.0808 112.963C68.8237 114.027 66.9563 113.824 65.3472 113.472C57.0592 111.658 49.3213 107.403 43.3509 101.375C42.1885 100.201 41.0645 98.9167 40.5272 97.3546C39.8645 95.4271 40.1733 93.2986 40.7432 91.3418C43.6544 81.3447 52.6136 74.4949 61.128 68.5015C65.7088 65.277 65.5445 57.2861 60.8352 54.2527C57.3491 57.4205 52.7008 59.6357 48.0187 59.1189C43.3368 58.6021 38.9056 54.7685 38.7547 50.0605C40.2251 49.9309 41.6664 49.4794 42.948 48.7471C41.6901 48.2999 40.2723 48.3191 39.0267 48.7999C38.688 47.5311 38.9352 46.1181 39.6848 45.0399L42.3544 44.7546C41.8176 44.1479 41.0691 43.7322 40.2704 43.5975C42.1971 40.3874 46.6683 39.5087 50.2517 40.5935C53.8349 41.6783 56.7371 44.2626 59.5133 46.7743C56.6184 40.4269 48.7683 38.381 41.9141 37.0802L44.9048 35.3082C43.1765 34.8373 41.2696 35.0586 39.6949 35.9133C40.7229 37.1869 42.1104 38.1666 43.6541 38.7093C41.1867 42.2218 36.8312 44.3181 32.5467 44.0557C28.3344 43.7978 24.0443 45.0874 20.6725 47.6255C26.1517 45.3975 32.1379 44.4261 38.0408 44.8069L37.0597 49.0578C33.652 49.6951 30.4005 51.1501 27.6547 53.266L36.9352 50.1319C37.8653 54.8861 41.6256 58.9725 46.2867 60.2935C50.9475 61.6149 56.2928 60.1093 59.5792 56.5501C63.0672 57.2421 63.904 62.2778 61.9973 65.2791C60.4877 67.6559 58.0184 69.1362 55.5704 70.6039C54.9267 70.9898 54.2845 71.3746 53.6616 71.7749C46.1725 76.5861 40.7547 84.5119 38.9907 93.2367C37.2267 101.962 39.14 111.37 44.1717 118.712C35.8608 121.858 30.3355 131.118 31.5139 139.925C31.5408 140.127 31.5707 140.33 31.6008 140.534C31.7787 141.738 31.9603 142.968 31.5512 144.099C31.0733 145.423 29.3563 146.403 28.228 145.563C25.0088 143.166 21.2339 141.52 17.2869 140.794C14.9634 140.366 11.5534 141.327 12.0484 143.638C12.2134 144.408 12.82 144.996 13.4087 145.519C19.5173 150.948 26.9576 154.869 34.8899 156.838C36.6848 157.283 38.6787 157.608 40.3059 156.728C42.6221 155.476 43.0024 152.67 43.3845 149.85C43.76 147.078 44.1371 144.294 46.3565 142.962C48.3608 141.76 50.8304 142.434 53.1451 143.066L53.1464 143.066C53.4552 143.15 53.7613 143.234 54.0629 143.312C59.5675 144.739 65.2755 144.195 70.9861 143.65C73.2405 143.435 75.4949 143.22 77.7376 143.126C83.9597 142.866 90.2208 143.555 96.2368 145.164C98.332 145.725 100.415 144.679 102.399 143.684C102.694 143.536 102.986 143.389 103.277 143.248C105.519 142.164 108.592 141.592 110.192 143.502C110.825 144.257 111.059 145.224 111.293 146.197V146.197H111.294V146.198V146.198L111.294 146.198V146.199V146.199H111.294V146.2V146.2C111.41 146.68 111.526 147.162 111.691 147.619C112.769 150.608 116 152.44 119.173 152.617C122.345 152.795 125.443 151.592 128.215 150.039C133.468 147.098 137.961 142.812 141.147 137.704C141.518 137.11 141.884 136.449 141.81 135.752C141.614 133.911 138.966 133.767 137.199 134.321C132.421 135.822 128.027 138.534 124.545 142.134C122.907 140.641 122.11 138.281 122.507 136.101C132.244 129.368 142.61 122.406 154.418 121.569C156.269 121.438 158.149 121.458 160.026 121.478C164.103 121.523 168.168 121.566 171.906 120.058C178.793 117.28 182.771 107.882 178.456 101.838C175.137 97.1879 168.647 96.0906 162.957 96.6002C153.339 97.4615 144.082 101.89 137.375 108.838C135.512 110.768 133.812 112.905 132.115 115.037C128.442 119.652 124.785 124.248 119.521 126.698C115.947 121.754 110.346 118.324 104.319 117.387C108.789 109.138 109.947 99.1517 107.481 90.0986C105.016 81.0455 98.9547 73.0253 90.9184 68.1821C90.4805 67.9181 90.0344 67.661 89.5872 67.4031L89.5869 67.4029C87.5632 66.2365 85.5195 65.0581 84.1405 63.2007C82.4568 60.9327 82.2896 57.2071 84.6512 55.6573C87.7915 59.9663 94.3816 60.897 99.0421 58.3063C103.702 55.7154 106.357 50.2786 106.45 44.9474L118.506 44.6405C114.453 43.285 110.026 43.0682 105.861 44.0215L104.417 40.0885L113.982 38.8343C110.453 37.9455 106.671 38.0871 103.218 39.2375C102.434 37.701 101.238 36.377 99.788 35.4413C101.149 35.5957 102.562 35.2311 103.679 34.4381L100.541 31.9405C101.841 32.1794 103.252 31.3271 103.645 30.0653L98.6221 28.0333L118.451 18.5447C117.606 18.5298 116.76 18.561 115.919 18.6378L118.482 16.9428C114.569 17.4159 110.709 16.3143 106.853 15.2141C102.863 14.0754 98.8773 12.9381 94.8432 13.5501C93.2581 13.7906 91.6632 14.2946 90.0773 14.7962C86.8045 15.8306 83.5704 16.8533 80.5427 15.5199C74.3819 12.8074 67.1568 12.6087 60.8563 14.9786C60.2992 15.1882 59.7331 15.4173 59.1616 15.6485C56.016 16.921 52.7016 18.2618 49.7632 16.8133C46.2269 15.0701 41.9384 16.0895 38.3928 17.8135C37.148 18.4186 35.94 19.1071 34.7331 19.7949C32.5016 21.0663 30.2739 22.3359 27.824 23.0741C33.3523 26.4626 39.6131 28.649 46.0488 29.4394C46.8392 30.0503 46.5632 31.4082 45.7747 32.0215C44.9859 32.6346 43.9197 32.7125 42.9221 32.7658C43.1789 34.5431 45.4691 35.6687 47.0331 34.7863C46.3757 34.9085 46.3267 33.8407 46.5997 33.2306L48.3037 29.4226C49.6272 29.9085 51.2741 29.1287 51.7371 27.7973C48.46 28.1917 45.0597 28.5754 41.9203 27.5559C38.7811 26.5365 35.976 23.6922 36.1232 20.3946C43.1144 16.3442 52.4995 16.8927 58.9712 21.7298C58.4715 20.2717 57.2432 19.0834 55.7691 18.6324C57.4712 16.9567 59.7307 15.857 62.0995 15.5514C60.6923 16.6647 60.0472 18.6554 60.5341 20.3826L66.8528 14.5711C65.8163 16.4293 65.2357 18.5397 65.176 20.6666C67.5192 19.1351 69.3861 16.8855 70.4595 14.2999L73.2701 14.6946C71.5493 16.1485 70.5907 18.4589 70.7765 20.7039C72.9184 19.3725 74.5787 17.2839 75.3933 14.8973C78.0328 15.3237 80.596 16.2173 82.9285 17.5237ZM160.571 120.402C159.158 120.355 157.744 120.308 156.338 120.348C145.874 120.645 136.146 125.742 127.512 131.662L127.423 131.723L127.325 131.79L127.155 131.907L127.148 131.911C125.51 133.038 123.855 134.176 121.985 134.841L119.788 128.437C119.67 128.094 119.597 127.621 119.917 127.448C123.277 125.632 126.345 123.276 128.968 120.5C130.715 118.65 132.266 116.618 133.814 114.587C136.007 111.712 138.196 108.842 140.937 106.502C145.315 102.766 150.826 100.628 156.355 99.0333C160.448 97.853 164.736 96.9271 168.945 97.5754C173.155 98.2237 177.299 100.736 178.843 104.705C180.069 107.858 179.469 111.577 177.58 114.383C175.691 117.19 172.624 119.099 169.338 119.9C166.48 120.597 163.528 120.499 160.571 120.402ZM40.1704 133.967C40.3917 134.494 40.5312 135.196 40.0896 135.558C39.5205 136.023 38.7136 135.423 38.2355 134.864L34.1608 130.103C33.1853 132.639 32.7379 135.376 32.8549 138.091C32.8784 138.635 32.9227 139.187 32.9672 139.741V139.741L32.9675 139.742V139.742V139.743V139.743C33.1379 141.863 33.3104 144.012 32.3283 145.851C31.8976 146.657 31.1648 147.397 30.2523 147.456C29.7352 147.49 29.2317 147.301 28.7544 147.099C27.4461 146.546 26.1571 145.866 24.8685 145.186C21.5512 143.436 18.2368 141.688 14.6045 142.105C14.1084 142.162 13.4907 142.407 13.5101 142.906C13.5188 143.129 13.6645 143.321 13.8063 143.494C19.0432 149.89 27.2325 152.991 35.1603 155.333C36.4568 155.716 37.8232 156.089 39.1435 155.798C40.4637 155.507 41.6893 154.317 41.5299 152.975C41.108 149.423 42.2208 145.715 44.5291 142.982C45.4504 141.891 46.6155 140.92 48.0133 140.63C49.7307 140.273 51.4091 140.981 53.0621 141.678C53.4867 141.857 53.9099 142.035 54.3312 142.194C57.5624 143.416 61.1941 143.549 64.5061 142.568C63.2112 142.551 62.5893 140.998 62.3211 139.731C60.5824 131.524 59.6579 123.145 59.5659 114.756C59.556 113.844 58.916 113.037 58.1443 112.551C57.4909 112.139 56.7459 111.91 56.0051 111.683C55.8709 111.641 55.7368 111.6 55.6032 111.558C52.9059 110.703 50.3643 109.36 48.1387 107.612C47.8581 107.392 47.5821 107.166 47.3056 106.938C46.4539 106.238 45.6013 105.538 44.6235 105.036C43.3285 104.371 41.7259 104.1 40.428 104.759C40.1384 105.449 40.6619 106.251 41.3317 106.584C41.8392 106.836 42.4077 106.905 42.9747 106.973C43.1565 106.995 43.3381 107.017 43.5173 107.044C44.3704 107.177 45.2008 107.455 45.9619 107.863C46.7611 108.291 47.5184 109.421 46.8059 109.982C46.5136 110.212 46.1043 110.196 45.7333 110.169L41.5493 109.861C42.5693 112.636 43.8696 115.308 45.4243 117.823C45.5637 118.048 45.7501 118.299 46.0155 118.302C50.1144 118.339 54.6917 118.913 57.2893 122.084C57.7816 122.685 58.1856 123.553 57.7635 124.206C55.3824 121.331 51.6579 119.618 47.9253 119.683C44.1928 119.747 40.5296 121.587 38.2493 124.543C40.2621 125.89 41.8621 127.845 42.7845 130.084C43.0629 130.761 43.0117 131.867 42.2805 131.852L37.8885 126.474C37.6923 126.234 37.4563 125.973 37.1461 125.963C36.8976 125.956 36.6784 126.115 36.4811 126.267C36.0539 126.595 35.6104 126.943 35.3875 127.433C35.1645 127.924 35.2475 128.599 35.712 128.872C37.692 130.035 39.2808 131.85 40.1704 133.967ZM90.2424 142.383C93.0627 140.03 93.9827 136.156 94.7403 132.562L97.5155 119.392C97.5453 119.251 97.5792 119.102 97.6805 119C97.8141 118.865 98.0237 118.851 98.2133 118.845C103.273 118.692 108.659 119.174 112.733 122.176C111.071 123.001 109.617 124.243 108.545 125.758C108.243 126.182 107.992 126.821 108.379 127.169C108.525 127.299 108.727 127.346 108.922 127.359C109.893 127.428 110.781 126.822 111.49 126.155C111.643 126.011 111.794 125.863 111.944 125.714C112.491 125.172 113.041 124.629 113.736 124.311C114.621 123.905 115.851 124.019 116.34 124.861C114.761 125.666 113.459 127.004 112.7 128.605C112.502 129.022 112.338 129.504 112.499 129.936C112.659 130.369 113.289 130.623 113.599 130.281L116.65 126.913C116.798 126.75 117.003 126.571 117.209 126.646C117.321 126.687 117.393 126.792 117.457 126.892C119.074 129.43 119.717 132.384 120.362 135.351C120.74 137.088 121.119 138.83 121.695 140.495C122.156 141.828 123.047 143.327 124.459 143.328C125.239 143.328 125.929 142.848 126.546 142.372C127.206 141.862 127.863 141.328 128.523 140.791C131.626 138.266 134.799 135.684 138.707 135.374C139.323 135.326 140.113 135.462 140.257 136.062C140.341 136.411 140.154 136.762 139.966 137.068C137.062 141.823 132.705 145.571 127.893 148.377C125.428 149.814 122.726 151.047 119.874 151.07C117.022 151.092 114.002 149.633 112.924 146.992C112.704 146.454 112.569 145.885 112.435 145.317L112.435 145.317C112.28 144.66 112.124 144.003 111.837 143.395C111.098 141.826 109.459 140.722 107.727 140.626C106.078 140.535 104.562 141.269 103.049 142.002C102.518 142.259 101.986 142.516 101.45 142.738C97.8896 144.206 93.7029 144.074 90.2424 142.383ZM71.4152 114.031C70.3533 114.936 68.9253 115.298 67.5333 115.4C65.0256 115.584 62.4667 114.997 60.2899 113.739L61.188 117.138C61.2267 117.285 61.2728 117.443 61.3944 117.533C61.5 117.611 61.64 117.621 61.7715 117.628L74.6771 118.306C76.5587 118.405 78.4426 118.504 80.3259 118.45C85.6083 118.297 90.8515 116.918 95.5253 114.452C95.7952 114.31 96.0698 114.158 96.264 113.923C96.4955 113.643 96.5869 113.276 96.6643 112.921C97.3189 109.918 97.4323 106.798 96.9968 103.756C96.8901 103.009 96.7411 102.242 96.3211 101.615C95.9008 100.988 95.1453 100.53 94.4037 100.671C86.8093 102.117 79.0568 101.67 71.3048 101.224H71.3045H71.3043H71.3037H71.3035H71.3032H71.3029C68.3811 101.055 65.4592 100.887 62.5461 100.82C62.0259 100.808 61.4789 100.805 61.0219 101.054C60.5651 101.303 60.2507 101.894 60.4853 102.358C61.8136 104.986 64.5584 106.663 67.4043 107.42C67.6088 107.474 67.8179 107.528 68.0296 107.582C69.8707 108.05 71.8981 108.565 72.5664 110.279C73.0736 111.579 72.4768 113.124 71.4152 114.031ZM92.1213 136.306C91.6008 138.373 90.5064 140.517 88.5208 141.292C87.8261 141.563 87.0739 141.644 86.3315 141.713C79.4469 142.354 72.4888 142.2 65.6395 141.254C65.2317 141.198 64.8019 141.13 64.484 140.868C64.0968 140.549 63.9656 140.022 63.864 139.531C63.5531 138.026 63.3123 136.506 63.1421 134.979C63.1123 134.708 63.1872 134.322 63.4587 134.343C67.8413 134.684 72.2368 134.863 76.6328 134.88C79.6651 134.892 82.7216 134.823 85.6834 134.172C88.6451 133.521 91.5328 132.248 93.6979 130.124C93.0824 131.417 92.8173 132.829 92.552 134.243L92.5517 134.244V134.244L92.5515 134.244V134.245V134.245H92.5512V134.246C92.4219 134.936 92.2923 135.627 92.1213 136.306ZM77.3147 127.721C77.0336 127.995 76.7312 128.32 76.7512 128.711C76.7709 129.103 77.3584 129.395 77.5611 129.06C78.6675 127.227 80.5912 125.91 82.6994 125.54C84.808 125.171 87.0648 125.757 88.7277 127.105C88.9005 127.245 89.0677 127.393 89.2349 127.541C89.6291 127.891 90.0232 128.24 90.4888 128.481C90.7272 128.605 91.1357 128.608 91.1456 128.339C91.1488 128.251 91.0984 128.171 91.0488 128.098C89.8547 126.338 88.0691 124.987 86.0509 124.316C84.2816 123.728 82.2315 123.691 80.6493 124.677C80.0747 125.035 79.5845 125.511 79.0994 125.984L77.3147 127.721ZM62.4528 126.72C63.9781 124.985 66.4443 124.216 68.7349 124.519C71.0253 124.822 73.1205 126.112 74.6424 127.851C74.9107 128.157 75.1736 128.597 74.956 128.942C74.7741 129.23 74.3389 129.251 74.0397 129.087C73.7789 128.944 73.5928 128.703 73.4096 128.466L73.4085 128.464C73.3925 128.444 73.3763 128.423 73.3603 128.402C73.3499 128.389 73.3395 128.376 73.3291 128.362C71.9819 126.648 69.7805 125.642 67.6029 125.745C65.4256 125.848 63.3288 127.057 62.1488 128.89C61.8416 128.623 61.7547 128.164 61.8469 127.767C61.9395 127.37 62.184 127.026 62.4528 126.72ZM84.892 122.174C84.8565 122.561 85.3683 122.802 85.736 122.675C86.0669 122.561 86.2976 122.275 86.5197 122C86.5445 121.969 86.5691 121.939 86.5936 121.909C88.6413 119.404 92.5405 118.65 95.3747 120.21C95.7464 119.896 95.7677 119.294 95.5189 118.875C95.2701 118.457 94.816 118.2 94.3525 118.052C93.3485 117.731 92.2584 117.841 91.2256 118.05C88.7805 118.544 86.3109 119.703 85.0256 121.841C84.9635 121.944 84.9032 122.054 84.892 122.174ZM72.3512 130.995C73.292 130.635 74.2755 130.369 75.2803 130.299C77.7661 130.126 80.3069 131.243 81.8608 133.191C81.1989 133.664 80.3272 133.088 79.6467 132.639L79.64 132.635C77.4688 131.201 74.5024 131.072 72.2155 132.314C72.0371 132.41 71.8571 132.516 71.6755 132.622C70.82 133.123 69.9309 133.644 69.0101 133.383C69.7712 132.217 71.0512 131.492 72.3512 130.995ZM79.4083 129.671C79.7981 129.468 80.148 129.2 80.4979 128.932C80.832 128.676 81.1664 128.42 81.5357 128.22C82.5768 127.657 83.8738 127.592 84.9661 128.048C85.2848 128.181 85.5837 128.355 85.8829 128.528L85.8832 128.528C86.1408 128.678 86.3984 128.827 86.6688 128.951C87.2531 129.218 87.9493 129.357 88.5315 129.085C88.596 129.055 88.6629 129.015 88.6901 128.949C88.7344 128.842 88.6557 128.726 88.5795 128.639C87.2765 127.152 85.2352 126.346 83.2677 126.543C81.3003 126.739 79.4584 127.932 78.4752 129.648C78.6805 129.918 79.1075 129.828 79.4083 129.671ZM64.8448 129.204C64.6229 129.4 64.4013 129.596 64.1448 129.742C63.7365 129.974 63.1867 130.052 62.8173 129.762C62.7032 129.147 63.3227 128.671 63.8624 128.356C65.1928 127.579 66.6224 126.778 68.1608 126.857C69.3915 126.92 70.5147 127.544 71.5776 128.167C71.8389 128.32 72.1069 128.481 72.2856 128.726C72.4643 128.97 72.5312 129.323 72.3643 129.576C72.1957 129.831 71.8405 129.906 71.5421 129.837C71.2549 129.77 71.0064 129.598 70.764 129.429L70.7357 129.41C69.8757 128.812 68.9381 128.262 67.8981 128.142C66.9651 128.033 65.9925 128.296 65.2459 128.866C65.108 128.971 64.9776 129.087 64.8472 129.202L64.8469 129.202L64.8467 129.202L64.8464 129.203H64.8461L64.8459 129.203L64.8456 129.203L64.8453 129.203H64.8451L64.8448 129.204ZM71.0725 123.779C71.3504 124.138 71.8941 123.753 72.2005 123.418C73.1451 122.386 74.5064 121.747 75.9035 121.68C77.3008 121.613 78.7168 122.119 79.7557 123.055C79.7771 123.074 79.7981 123.094 79.8195 123.113C80.0629 123.335 80.3227 123.571 80.6469 123.58C80.9995 123.59 81.3173 123.098 81.0376 122.883C79.5397 121.732 77.7973 120.792 75.9125 120.667C74.028 120.543 71.9968 121.389 71.1243 123.064C71.0075 123.288 70.9179 123.579 71.0725 123.779ZM88.2728 123.039C88.1112 123.206 87.9477 123.374 87.7357 123.464C87.4869 123.569 87.1453 123.519 87.0253 123.277C86.8984 123.021 87.0755 122.723 87.2603 122.506C89.0739 120.372 92.4875 119.819 94.8821 121.271C95.2491 121.493 95.6336 121.925 95.4178 122.295C95.1592 122.74 94.4893 122.456 94.044 122.198C92.2637 121.168 89.8072 121.495 88.357 122.953C88.3288 122.982 88.3008 123.01 88.2728 123.039ZM89.0594 123.601C88.9565 123.687 88.8539 123.783 88.8107 123.91C88.6896 124.265 89.1205 124.597 89.4939 124.567C89.7643 124.546 90.0053 124.414 90.2461 124.282C90.3381 124.232 90.4301 124.182 90.5237 124.138C91.3499 123.748 92.3427 123.841 93.1813 124.203C93.2061 124.214 93.2309 124.225 93.2557 124.236C93.3101 124.26 93.3643 124.286 93.4187 124.311C93.6691 124.427 93.92 124.544 94.1917 124.585C94.549 124.639 94.9659 124.52 95.1288 124.198C93.7077 122.436 90.7962 122.15 89.0594 123.601ZM67.2283 122.815C67.092 123.006 66.8027 123.024 66.5904 122.925C66.3933 122.833 66.2456 122.664 66.1016 122.5L66.0685 122.463C65.0725 121.333 63.7816 120.465 62.3595 119.97C61.9901 119.841 61.5208 119.584 61.6248 119.207C62.6456 118.859 63.8003 119.132 64.7171 119.701C65.6339 120.27 66.3512 121.105 67.0181 121.953C67.2152 122.203 67.4139 122.556 67.2283 122.815ZM79.1579 123.871C77.4797 122.801 75.1888 122.782 73.4931 123.825C73.1984 124.006 72.8957 124.261 72.8728 124.606C72.8499 124.951 73.3186 125.272 73.5512 125.015C74.4877 123.983 76.1995 123.768 77.3619 124.538C77.9325 124.916 78.752 124.865 79.2709 124.418C79.516 124.393 79.3656 124.004 79.1579 123.871ZM85.032 132.553C86.7629 130.905 88.9819 129.502 91.3667 129.663C91.612 129.679 91.9408 129.886 91.7928 130.082L85.8792 132.641C85.588 132.767 85.1581 132.844 85.032 132.553ZM68.6707 130.725C68.7288 130.758 68.7869 130.793 68.8451 130.829C69.08 130.972 69.3181 131.117 69.5883 131.118C69.9256 131.118 70.2597 130.712 70.0459 130.451C69.3725 129.63 68.3141 129.139 67.2525 129.156C66.1907 129.172 65.148 129.695 64.5 130.536C64.58 130.842 64.9541 130.983 65.2667 130.937C65.492 130.904 65.6981 130.803 65.904 130.703C65.984 130.664 66.0637 130.625 66.1448 130.59C66.9467 130.242 67.9104 130.294 68.6707 130.725ZM80.9712 130.902C80.7352 130.915 80.469 130.736 80.496 130.501C80.5059 130.414 80.5531 130.336 80.6027 130.265C81.1496 129.479 82.1376 129.077 83.0952 129.068C84.0528 129.059 84.9835 129.399 85.8288 129.848C86.0648 129.974 86.3301 130.174 86.292 130.438C85.9003 130.855 85.2514 130.631 84.6859 130.436C84.6229 130.415 84.5613 130.393 84.5011 130.373C83.5597 130.061 82.4901 130.159 81.6213 130.638C81.5915 130.654 81.5616 130.671 81.5315 130.688C81.3539 130.789 81.1731 130.891 80.9712 130.902ZM78.716 120.197C79.7019 120.55 80.62 121.091 81.4064 121.782C81.4611 121.83 81.5154 121.879 81.5696 121.928L81.5699 121.928H81.5701C81.8381 122.17 82.1077 122.413 82.4344 122.56C82.8277 122.738 83.3384 122.743 83.6464 122.44C82.9651 121.918 82.4056 121.238 82.0237 120.468C81.8181 120.054 81.2701 119.978 80.8083 119.956L78.7829 119.857C78.7117 119.953 78.6864 120.081 78.716 120.197ZM70.4624 121.935C70.2888 122.156 70.1155 122.376 69.9107 122.568C69.5621 122.893 69.0813 123.132 68.6157 123.029C69.0888 121.881 69.8539 120.855 70.8184 120.073C71.5072 119.515 72.504 119.638 73.3773 119.789C73.424 120.105 73.0187 120.263 72.7101 120.345C71.9957 120.535 71.3379 120.934 70.8384 121.48C70.7059 121.625 70.584 121.78 70.4624 121.935ZM62.1467 122.172L64.0245 123.396C64.2896 123.568 64.6277 123.745 64.9027 123.589C65.1579 123.444 65.1968 123.07 65.0637 122.808C64.9309 122.547 64.6773 122.371 64.4339 122.207L62.9051 121.178C62.4781 120.891 61.7829 120.662 61.5509 121.121C61.3507 121.516 61.7749 121.93 62.1467 122.172ZM76.2056 127.424C75.9011 127.57 75.5656 127.313 75.3261 127.075L74.5443 126.299C74.4525 126.208 74.3533 126.097 74.3693 125.969C74.3795 125.888 74.4344 125.82 74.4907 125.761C75.2248 124.993 76.6195 125.014 77.3299 125.804L76.5157 127.091C76.4336 127.221 76.3443 127.358 76.2056 127.424ZM64.3725 133.208C64.8816 133.387 65.4824 133.439 65.9312 133.14C65.2555 132.363 64.4632 131.687 63.5893 131.142C63.3413 130.987 63.0619 130.838 62.7725 130.879C62.4832 130.92 62.2272 131.249 62.3672 131.505C62.7973 132.292 63.5261 132.911 64.3725 133.208ZM93.0227 126.088L92.3011 126.96C92.2325 127.043 92.1562 127.13 92.0512 127.153C91.8925 127.188 91.748 127.062 91.6339 126.947L90.5861 125.885C90.432 125.729 90.4762 125.45 90.6293 125.293C90.7824 125.136 91.0093 125.077 91.2269 125.051C91.7965 124.982 92.3867 125.099 92.8867 125.38C93.0304 125.462 93.1813 125.58 93.188 125.745C93.193 125.875 93.1056 125.988 93.0227 126.088ZM67.1984 120.68C67.4141 120.912 67.6853 121.15 68.0013 121.124C68.3285 121.097 68.5488 120.81 68.7653 120.528C68.9968 120.226 69.2243 119.93 69.5741 119.963C69.7557 119.663 69.26 119.423 68.9096 119.418L66.1899 119.375C66.4856 119.839 66.8237 120.276 67.1984 120.68ZM78.4555 133.398L72.7976 133.423C72.8589 133.13 73.1885 132.989 73.4773 132.911C74.7675 132.561 76.1397 132.52 77.4483 132.791C77.8477 132.874 78.2901 133.025 78.4555 133.398ZM84.4421 131.438L82.5701 131.523C82.3688 131.532 82.1101 131.59 82.0853 131.79C82.0744 131.88 82.1192 131.966 82.1627 132.044C82.3277 132.344 82.5032 132.656 82.7885 132.844C83.0736 133.033 83.5032 133.052 83.7251 132.791C83.8013 132.702 83.8461 132.59 83.8907 132.479C83.9453 132.342 83.9997 132.206 84.1115 132.115C84.1856 132.054 84.276 132.021 84.3667 131.987C84.436 131.962 84.5053 131.937 84.568 131.899C84.7128 131.811 84.8048 131.584 84.6707 131.481C84.6077 131.433 84.5213 131.435 84.4421 131.438ZM68.0347 131.686C68.2944 131.854 68.452 132.222 68.2853 132.482C68.0856 132.794 67.8365 133.137 67.4683 133.173C66.9933 133.22 66.6531 132.742 66.4219 132.324C66.3432 132.182 66.2616 132.025 66.2907 131.865C66.352 131.529 66.8008 131.467 67.1416 131.483C67.4501 131.499 67.7749 131.519 68.0347 131.686ZM92.9347 128.74C93.2147 128.763 93.4656 128.573 93.6621 128.372C94.2613 127.76 94.6427 126.938 94.7229 126.084C94.5248 125.958 94.2821 126.154 94.1301 126.334L92.5994 128.144C92.4181 128.359 92.6547 128.717 92.9347 128.74ZM62.9555 124.716C62.5544 124.933 62.0056 124.822 61.7211 124.466C61.4365 124.11 61.4488 123.55 61.7485 123.206C61.7901 123.159 61.8397 123.113 61.9019 123.1C61.9917 123.082 62.0787 123.136 62.1544 123.188L62.8989 123.695C63.0707 123.812 63.2568 123.951 63.2931 124.155C63.3339 124.385 63.1608 124.606 62.9555 124.716ZM83.7579 120.707C84.0557 120.957 84.4973 120.699 84.7931 120.446L85.7557 119.624C85.5741 119.45 85.2837 119.489 85.0379 119.54L82.8947 119.983L83.7579 120.707ZM40.4296 101.857C40.2107 101.662 40.1547 101.344 40.1483 101.051C40.1408 100.721 40.1795 100.39 40.2629 100.07L41.6835 101.919C41.768 102.029 41.8376 102.219 41.7125 102.28C41.5349 102.16 41.3165 102.127 41.0995 102.093C40.8541 102.055 40.6104 102.018 40.4296 101.857ZM94.9765 117.203C95.1562 117.427 95.5349 117.378 95.7411 117.178C95.9474 116.978 96.0235 116.683 96.0826 116.402C96.0968 116.334 96.1101 116.261 96.0819 116.198C96.0096 116.038 95.772 116.086 95.6131 116.16C95.1848 116.36 94.6805 116.834 94.9765 117.203ZM78.9011 35.4383C79.0749 35.0039 79.4795 34.7109 79.8781 34.4661C81.0808 33.7271 82.4165 33.2055 83.8016 32.9335C84.1331 32.8685 84.5277 32.8367 84.7579 33.0839C85.0168 33.3621 84.8872 33.8434 84.6 34.0919C84.344 34.3135 84.0072 34.4045 83.6778 34.4933C83.6373 34.5042 83.5971 34.5151 83.5573 34.5261C82.4496 34.8327 81.4075 35.3743 80.52 36.1047C80.1787 36.3855 79.7741 36.7162 79.3485 36.5978C78.8979 36.4725 78.7272 35.8725 78.9011 35.4383ZM53.9869 35.5397C53.6656 35.3655 53.4483 34.9311 53.6485 34.625C53.7648 34.4471 53.9819 34.3661 54.188 34.3135C55.8579 33.8898 57.5867 34.6381 59.0973 35.4669C59.4373 35.6533 59.7872 35.8565 60.0016 36.1797C60.216 36.5031 60.2472 36.9821 59.9675 37.2506C59.4995 37.7005 58.7573 37.2378 58.2288 36.8607C57.3035 36.2007 56.1915 35.805 55.0571 35.7322C55.0067 35.729 54.9557 35.7263 54.9045 35.7237V35.7234C54.5869 35.7066 54.264 35.6895 53.9869 35.5397ZM71.4928 59.4815L70.3944 56.3487C69.4168 57.0543 68.6859 58.0951 68.3541 59.2543C68.0541 59.0103 68.0429 58.5975 68.032 58.1922C68.0288 58.0711 68.0256 57.9506 68.0147 57.8357C67.9499 57.1527 67.5208 56.5149 66.9128 56.1975C66.3045 55.8799 65.5363 55.8922 64.9387 56.2293C65.0973 56.5762 65.4707 56.6863 65.8549 56.7997C66.1104 56.8749 66.3704 56.9517 66.5755 57.0999C67.0091 57.4133 67.1331 58.0039 67.1397 58.5389C67.1416 58.6727 67.1381 58.8077 67.1347 58.9429C67.1243 59.3469 67.1141 59.7519 67.2403 60.1322C67.2811 60.2551 67.3387 60.3775 67.4381 60.4602C67.72 60.6946 68.1467 60.4999 68.432 60.2698C69.0765 59.7501 69.5835 59.061 69.8877 58.2911C70.156 58.5591 70.2552 58.9357 70.3536 59.3093C70.3824 59.4189 70.4112 59.5285 70.4443 59.6346C70.5896 60.1031 70.9376 60.6042 71.4277 60.5813C71.7544 60.5663 72.0176 60.3205 72.2488 60.0893L73.5779 58.7618C73.7379 58.6018 73.9117 58.3983 73.86 58.1778C73.8107 57.9663 73.5597 57.853 73.3445 57.8834C73.1293 57.9138 72.9453 58.0493 72.7771 58.1866C72.3051 58.5717 71.8739 59.0066 71.4928 59.4815ZM68.4573 46.9151C68.528 46.341 68.5672 45.6722 68.1453 45.2762C67.3581 44.5373 66.6688 43.6946 66.1008 42.7765C65.8531 42.3762 65.6203 41.9085 65.7384 41.4527C65.9168 40.7645 66.7536 40.5154 67.4595 40.4295C68.5888 40.2919 69.732 40.2687 70.8659 40.3599C71.3533 40.3991 71.8699 40.4725 72.2427 40.7885C72.6155 41.1045 72.7501 41.7455 72.3901 42.0762C70.6259 43.6981 69.5928 46.0871 69.6195 48.4837C70.2736 48.9082 70.9387 49.3381 71.684 49.5677C72.4293 49.7975 73.2787 49.805 73.9512 49.4095C74.2341 49.2431 74.4717 49.0154 74.7096 48.7871C74.8739 48.6295 75.0384 48.4717 75.2184 48.3335C75.6589 47.9957 76.2899 47.7863 76.7619 48.0786L74.9656 49.7322C74.2499 50.3914 73.3611 51.1002 72.4136 50.8783C72.1 50.8047 71.8245 50.6351 71.548 50.4647C71.3835 50.3634 71.2187 50.2618 71.0451 50.1802C70.1173 49.7437 69.0288 49.9069 68.0264 50.1221C67.9661 50.1349 67.9059 50.1479 67.8451 50.1613L67.8429 50.1615C66.8968 50.3666 65.9179 50.5789 64.9893 50.3239C64.0005 50.0527 63.1333 49.025 63.4427 48.0477C64.0651 48.9586 65.1491 49.5359 66.2523 49.5445C66.676 49.5477 67.1128 49.4666 67.4637 49.2293C68.1821 48.7437 68.3509 47.7759 68.4573 46.9151Z" fill="#00160A" transform="matrix(1, 0, 0, 1, -1.4210854715202004e-14, 0)"/>
</svg>